<?xml version="1.0" encoding="UTF-8" standalone="no"?>
<!DOCTYPE svg PUBLIC "-//W3C//DTD SVG 1.1//EN"
 "http://www.w3.org/Graphics/SVG/1.1/DTD/svg11.dtd">
<!-- Generated by graphviz version 8.0.5 (20230430.1635)
 -->
<!-- Title: model Pages: 1 -->
<svg width="148pt" height="864pt"
 viewBox="0.00 0.00 147.90 864.00" xmlns="http://www.w3.org/2000/svg" xmlns:xlink="http://www.w3.org/1999/xlink">
<g id="graph0" class="graph" transform="scale(0.571051 0.571051) rotate(0) translate(4 1509)">
<title>model</title>
<polygon fill="white" stroke="none" points="-4,4 -4,-1509 255,-1509 255,4 -4,4"/>
<!-- 0 -->
<g id="node1" class="node">
<title>0</title>
<polygon fill="lightyellow" stroke="none" points="177.62,-1505 29.38,-1505 29.38,-1472.5 177.62,-1472.5 177.62,-1505"/>
<polygon fill="none" stroke="black" points="29.38,-1472.5 29.38,-1505 90.38,-1505 90.38,-1472.5 29.38,-1472.5"/>
<text text-anchor="start" x="34.38" y="-1490.5" font-family="Linux libertine" font-size="10.00">input&#45;tensor</text>
<text text-anchor="start" x="43.75" y="-1479.25" font-family="Linux libertine" font-size="10.00">depth:0</text>
<polygon fill="none" stroke="black" points="90.38,-1472.5 90.38,-1505 177.62,-1505 177.62,-1472.5 90.38,-1472.5"/>
<text text-anchor="start" x="95.38" y="-1484.88" font-family="Linux libertine" font-size="10.00">(128, 3, 1, 28, 28)</text>
</g>
<!-- 1 -->
<g id="node2" class="node">
<title>1</title>
<polygon fill="#c1ffc1" stroke="none" points="191,-1436.5 16,-1436.5 16,-1394.5 191,-1394.5 191,-1436.5"/>
<polygon fill="none" stroke="black" points="16,-1394.5 16,-1436.5 58,-1436.5 58,-1394.5 16,-1394.5"/>
<text text-anchor="start" x="22" y="-1417.25" font-family="Linux libertine" font-size="10.00">Flatten</text>
<text text-anchor="start" x="20.88" y="-1406" font-family="Linux libertine" font-size="10.00">depth:4</text>
<polygon fill="none" stroke="black" points="58,-1415.5 58,-1436.5 101,-1436.5 101,-1415.5 58,-1415.5"/>
<text text-anchor="start" x="67.5" y="-1422" font-family="Linux libertine" font-size="10.00">input:</text>
<polygon fill="none" stroke="black" points="101,-1415.5 101,-1436.5 191,-1436.5 191,-1415.5 101,-1415.5"/>
<text text-anchor="start" x="105.88" y="-1422" font-family="Linux libertine" font-size="10.00">(128, 3, 1, 28, 28) </text>
<polygon fill="none" stroke="black" points="58,-1394.5 58,-1415.5 101,-1415.5 101,-1394.5 58,-1394.5"/>
<text text-anchor="start" x="63" y="-1401" font-family="Linux libertine" font-size="10.00">output: </text>
<polygon fill="none" stroke="black" points="101,-1394.5 101,-1415.5 191,-1415.5 191,-1394.5 101,-1394.5"/>
<text text-anchor="start" x="117.12" y="-1401" font-family="Linux libertine" font-size="10.00">(128, 3, 784) </text>
</g>
<!-- 0&#45;&gt;1 -->
<g id="edge1" class="edge">
<title>0&#45;&gt;1</title>
<path fill="none" stroke="black" d="M103.5,-1472.64C103.5,-1465.23 103.5,-1456.02 103.5,-1447.22"/>
<polygon fill="black" stroke="black" points="107,-1447.46 103.5,-1437.46 100,-1447.46 107,-1447.46"/>
</g>
<!-- 2 -->
<g id="node3" class="node">
<title>2</title>
<polygon fill="#c1ffc1" stroke="none" points="179.5,-1358.5 27.5,-1358.5 27.5,-1316.5 179.5,-1316.5 179.5,-1358.5"/>
<polygon fill="none" stroke="black" points="27.5,-1316.5 27.5,-1358.5 69.5,-1358.5 69.5,-1316.5 27.5,-1316.5"/>
<text text-anchor="start" x="35.38" y="-1339.25" font-family="Linux libertine" font-size="10.00">Linear</text>
<text text-anchor="start" x="32.38" y="-1328" font-family="Linux libertine" font-size="10.00">depth:4</text>
<polygon fill="none" stroke="black" points="69.5,-1337.5 69.5,-1358.5 112.5,-1358.5 112.5,-1337.5 69.5,-1337.5"/>
<text text-anchor="start" x="79" y="-1344" font-family="Linux libertine" font-size="10.00">input:</text>
<polygon fill="none" stroke="black" points="112.5,-1337.5 112.5,-1358.5 179.5,-1358.5 179.5,-1337.5 112.5,-1337.5"/>
<text text-anchor="start" x="117.12" y="-1344" font-family="Linux libertine" font-size="10.00">(128, 3, 784) </text>
<polygon fill="none" stroke="black" points="69.5,-1316.5 69.5,-1337.5 112.5,-1337.5 112.5,-1316.5 69.5,-1316.5"/>
<text text-anchor="start" x="74.5" y="-1323" font-family="Linux libertine" font-size="10.00">output: </text>
<polygon fill="none" stroke="black" points="112.5,-1316.5 112.5,-1337.5 179.5,-1337.5 179.5,-1316.5 112.5,-1316.5"/>
<text text-anchor="start" x="117.12" y="-1323" font-family="Linux libertine" font-size="10.00">(128, 3, 256) </text>
</g>
<!-- 1&#45;&gt;2 -->
<g id="edge2" class="edge">
<title>1&#45;&gt;2</title>
<path fill="none" stroke="black" d="M103.5,-1394.53C103.5,-1386.76 103.5,-1377.69 103.5,-1369.13"/>
<polygon fill="black" stroke="black" points="107,-1369.33 103.5,-1359.33 100,-1369.33 107,-1369.33"/>
</g>
<!-- 3 -->
<g id="node4" class="node">
<title>3</title>
<polygon fill="#c1ffc1" stroke="none" points="189,-1280.5 18,-1280.5 18,-1238.5 189,-1238.5 189,-1280.5"/>
<polygon fill="none" stroke="black" points="18,-1238.5 18,-1280.5 79,-1280.5 79,-1238.5 18,-1238.5"/>
<text text-anchor="start" x="22.62" y="-1261.25" font-family="Linux libertine" font-size="10.00">LeakyReLU</text>
<text text-anchor="start" x="32.38" y="-1250" font-family="Linux libertine" font-size="10.00">depth:4</text>
<polygon fill="none" stroke="black" points="79,-1259.5 79,-1280.5 122,-1280.5 122,-1259.5 79,-1259.5"/>
<text text-anchor="start" x="88.5" y="-1266" font-family="Linux libertine" font-size="10.00">input:</text>
<polygon fill="none" stroke="black" points="122,-1259.5 122,-1280.5 189,-1280.5 189,-1259.5 122,-1259.5"/>
<text text-anchor="start" x="126.62" y="-1266" font-family="Linux libertine" font-size="10.00">(128, 3, 256) </text>
<polygon fill="none" stroke="black" points="79,-1238.5 79,-1259.5 122,-1259.5 122,-1238.5 79,-1238.5"/>
<text text-anchor="start" x="84" y="-1245" font-family="Linux libertine" font-size="10.00">output: </text>
<polygon fill="none" stroke="black" points="122,-1238.5 122,-1259.5 189,-1259.5 189,-1238.5 122,-1238.5"/>
<text text-anchor="start" x="126.62" y="-1245" font-family="Linux libertine" font-size="10.00">(128, 3, 256) </text>
</g>
<!-- 2&#45;&gt;3 -->
<g id="edge3" class="edge">
<title>2&#45;&gt;3</title>
<path fill="none" stroke="black" d="M103.5,-1316.53C103.5,-1308.76 103.5,-1299.69 103.5,-1291.13"/>
<polygon fill="black" stroke="black" points="107,-1291.33 103.5,-1281.33 100,-1291.33 107,-1291.33"/>
</g>
<!-- 4 -->
<g id="node5" class="node">
<title>4</title>
<polygon fill="#c1ffc1" stroke="none" points="179.5,-1202.5 27.5,-1202.5 27.5,-1160.5 179.5,-1160.5 179.5,-1202.5"/>
<polygon fill="none" stroke="black" points="27.5,-1160.5 27.5,-1202.5 69.5,-1202.5 69.5,-1160.5 27.5,-1160.5"/>
<text text-anchor="start" x="35.38" y="-1183.25" font-family="Linux libertine" font-size="10.00">Linear</text>
<text text-anchor="start" x="32.38" y="-1172" font-family="Linux libertine" font-size="10.00">depth:4</text>
<polygon fill="none" stroke="black" points="69.5,-1181.5 69.5,-1202.5 112.5,-1202.5 112.5,-1181.5 69.5,-1181.5"/>
<text text-anchor="start" x="79" y="-1188" font-family="Linux libertine" font-size="10.00">input:</text>
<polygon fill="none" stroke="black" points="112.5,-1181.5 112.5,-1202.5 179.5,-1202.5 179.5,-1181.5 112.5,-1181.5"/>
<text text-anchor="start" x="117.12" y="-1188" font-family="Linux libertine" font-size="10.00">(128, 3, 256) </text>
<polygon fill="none" stroke="black" points="69.5,-1160.5 69.5,-1181.5 112.5,-1181.5 112.5,-1160.5 69.5,-1160.5"/>
<text text-anchor="start" x="74.5" y="-1167" font-family="Linux libertine" font-size="10.00">output: </text>
<polygon fill="none" stroke="black" points="112.5,-1160.5 112.5,-1181.5 179.5,-1181.5 179.5,-1160.5 112.5,-1160.5"/>
<text text-anchor="start" x="117.12" y="-1167" font-family="Linux libertine" font-size="10.00">(128, 3, 256) </text>
</g>
<!-- 3&#45;&gt;4 -->
<g id="edge4" class="edge">
<title>3&#45;&gt;4</title>
<path fill="none" stroke="black" d="M103.5,-1238.53C103.5,-1230.76 103.5,-1221.69 103.5,-1213.13"/>
<polygon fill="black" stroke="black" points="107,-1213.33 103.5,-1203.33 100,-1213.33 107,-1213.33"/>
</g>
<!-- 5 -->
<g id="node6" class="node">
<title>5</title>
<polygon fill="#c1ffc1" stroke="none" points="189,-1124.5 18,-1124.5 18,-1082.5 189,-1082.5 189,-1124.5"/>
<polygon fill="none" stroke="black" points="18,-1082.5 18,-1124.5 79,-1124.5 79,-1082.5 18,-1082.5"/>
<text text-anchor="start" x="22.62" y="-1105.25" font-family="Linux libertine" font-size="10.00">LeakyReLU</text>
<text text-anchor="start" x="32.38" y="-1094" font-family="Linux libertine" font-size="10.00">depth:4</text>
<polygon fill="none" stroke="black" points="79,-1103.5 79,-1124.5 122,-1124.5 122,-1103.5 79,-1103.5"/>
<text text-anchor="start" x="88.5" y="-1110" font-family="Linux libertine" font-size="10.00">input:</text>
<polygon fill="none" stroke="black" points="122,-1103.5 122,-1124.5 189,-1124.5 189,-1103.5 122,-1103.5"/>
<text text-anchor="start" x="126.62" y="-1110" font-family="Linux libertine" font-size="10.00">(128, 3, 256) </text>
<polygon fill="none" stroke="black" points="79,-1082.5 79,-1103.5 122,-1103.5 122,-1082.5 79,-1082.5"/>
<text text-anchor="start" x="84" y="-1089" font-family="Linux libertine" font-size="10.00">output: </text>
<polygon fill="none" stroke="black" points="122,-1082.5 122,-1103.5 189,-1103.5 189,-1082.5 122,-1082.5"/>
<text text-anchor="start" x="126.62" y="-1089" font-family="Linux libertine" font-size="10.00">(128, 3, 256) </text>
</g>
<!-- 4&#45;&gt;5 -->
<g id="edge5" class="edge">
<title>4&#45;&gt;5</title>
<path fill="none" stroke="black" d="M103.5,-1160.53C103.5,-1152.76 103.5,-1143.69 103.5,-1135.13"/>
<polygon fill="black" stroke="black" points="107,-1135.33 103.5,-1125.33 100,-1135.33 107,-1135.33"/>
</g>
<!-- 6 -->
<g id="node7" class="node">
<title>6</title>
<polygon fill="#c1ffc1" stroke="none" points="179.5,-1046.5 27.5,-1046.5 27.5,-1004.5 179.5,-1004.5 179.5,-1046.5"/>
<polygon fill="none" stroke="black" points="27.5,-1004.5 27.5,-1046.5 69.5,-1046.5 69.5,-1004.5 27.5,-1004.5"/>
<text text-anchor="start" x="35.38" y="-1027.25" font-family="Linux libertine" font-size="10.00">Linear</text>
<text text-anchor="start" x="32.38" y="-1016" font-family="Linux libertine" font-size="10.00">depth:4</text>
<polygon fill="none" stroke="black" points="69.5,-1025.5 69.5,-1046.5 112.5,-1046.5 112.5,-1025.5 69.5,-1025.5"/>
<text text-anchor="start" x="79" y="-1032" font-family="Linux libertine" font-size="10.00">input:</text>
<polygon fill="none" stroke="black" points="112.5,-1025.5 112.5,-1046.5 179.5,-1046.5 179.5,-1025.5 112.5,-1025.5"/>
<text text-anchor="start" x="117.12" y="-1032" font-family="Linux libertine" font-size="10.00">(128, 3, 256) </text>
<polygon fill="none" stroke="black" points="69.5,-1004.5 69.5,-1025.5 112.5,-1025.5 112.5,-1004.5 69.5,-1004.5"/>
<text text-anchor="start" x="74.5" y="-1011" font-family="Linux libertine" font-size="10.00">output: </text>
<polygon fill="none" stroke="black" points="112.5,-1004.5 112.5,-1025.5 179.5,-1025.5 179.5,-1004.5 112.5,-1004.5"/>
<text text-anchor="start" x="117.12" y="-1011" font-family="Linux libertine" font-size="10.00">(128, 3, 256) </text>
</g>
<!-- 5&#45;&gt;6 -->
<g id="edge6" class="edge">
<title>5&#45;&gt;6</title>
<path fill="none" stroke="black" d="M103.5,-1082.53C103.5,-1074.76 103.5,-1065.69 103.5,-1057.13"/>
<polygon fill="black" stroke="black" points="107,-1057.33 103.5,-1047.33 100,-1057.33 107,-1057.33"/>
</g>
<!-- 7 -->
<g id="node8" class="node">
<title>7</title>
<polygon fill="#c1ffc1" stroke="none" points="189,-968.5 18,-968.5 18,-926.5 189,-926.5 189,-968.5"/>
<polygon fill="none" stroke="black" points="18,-926.5 18,-968.5 79,-968.5 79,-926.5 18,-926.5"/>
<text text-anchor="start" x="22.62" y="-949.25" font-family="Linux libertine" font-size="10.00">LeakyReLU</text>
<text text-anchor="start" x="32.38" y="-938" font-family="Linux libertine" font-size="10.00">depth:4</text>
<polygon fill="none" stroke="black" points="79,-947.5 79,-968.5 122,-968.5 122,-947.5 79,-947.5"/>
<text text-anchor="start" x="88.5" y="-954" font-family="Linux libertine" font-size="10.00">input:</text>
<polygon fill="none" stroke="black" points="122,-947.5 122,-968.5 189,-968.5 189,-947.5 122,-947.5"/>
<text text-anchor="start" x="126.62" y="-954" font-family="Linux libertine" font-size="10.00">(128, 3, 256) </text>
<polygon fill="none" stroke="black" points="79,-926.5 79,-947.5 122,-947.5 122,-926.5 79,-926.5"/>
<text text-anchor="start" x="84" y="-933" font-family="Linux libertine" font-size="10.00">output: </text>
<polygon fill="none" stroke="black" points="122,-926.5 122,-947.5 189,-947.5 189,-926.5 122,-926.5"/>
<text text-anchor="start" x="126.62" y="-933" font-family="Linux libertine" font-size="10.00">(128, 3, 256) </text>
</g>
<!-- 6&#45;&gt;7 -->
<g id="edge7" class="edge">
<title>6&#45;&gt;7</title>
<path fill="none" stroke="black" d="M103.5,-1004.53C103.5,-996.76 103.5,-987.69 103.5,-979.13"/>
<polygon fill="black" stroke="black" points="107,-979.33 103.5,-969.33 100,-979.33 107,-979.33"/>
</g>
<!-- 8 -->
<g id="node9" class="node">
<title>8</title>
<polygon fill="#c1ffc1" stroke="none" points="236.5,-890.5 84.5,-890.5 84.5,-848.5 236.5,-848.5 236.5,-890.5"/>
<polygon fill="none" stroke="black" points="84.5,-848.5 84.5,-890.5 126.5,-890.5 126.5,-848.5 84.5,-848.5"/>
<text text-anchor="start" x="92.38" y="-871.25" font-family="Linux libertine" font-size="10.00">Linear</text>
<text text-anchor="start" x="89.38" y="-860" font-family="Linux libertine" font-size="10.00">depth:4</text>
<polygon fill="none" stroke="black" points="126.5,-869.5 126.5,-890.5 169.5,-890.5 169.5,-869.5 126.5,-869.5"/>
<text text-anchor="start" x="136" y="-876" font-family="Linux libertine" font-size="10.00">input:</text>
<polygon fill="none" stroke="black" points="169.5,-869.5 169.5,-890.5 236.5,-890.5 236.5,-869.5 169.5,-869.5"/>
<text text-anchor="start" x="174.12" y="-876" font-family="Linux libertine" font-size="10.00">(128, 3, 256) </text>
<polygon fill="none" stroke="black" points="126.5,-848.5 126.5,-869.5 169.5,-869.5 169.5,-848.5 126.5,-848.5"/>
<text text-anchor="start" x="131.5" y="-855" font-family="Linux libertine" font-size="10.00">output: </text>
<polygon fill="none" stroke="black" points="169.5,-848.5 169.5,-869.5 236.5,-869.5 236.5,-848.5 169.5,-848.5"/>
<text text-anchor="start" x="174.12" y="-855" font-family="Linux libertine" font-size="10.00">(128, 3, 256) </text>
</g>
<!-- 7&#45;&gt;8 -->
<g id="edge9" class="edge">
<title>7&#45;&gt;8</title>
<path fill="none" stroke="black" d="M118.48,-926.53C124.76,-918.15 132.18,-908.25 139.03,-899.12"/>
<polygon fill="black" stroke="black" points="142.42,-901.43 145.62,-891.33 136.82,-897.23 142.42,-901.43"/>
</g>
<!-- 12 -->
<g id="node13" class="node">
<title>12</title>
<polygon fill="aliceblue" stroke="none" points="203,-578.5 0,-578.5 0,-536.5 203,-536.5 203,-578.5"/>
<polygon fill="none" stroke="black" points="0,-536.5 0,-578.5 42,-578.5 42,-536.5 0,-536.5"/>
<text text-anchor="start" x="13.12" y="-559.25" font-family="Linux libertine" font-size="10.00">mul</text>
<text text-anchor="start" x="4.88" y="-548" font-family="Linux libertine" font-size="10.00">depth:3</text>
<polygon fill="none" stroke="black" points="42,-557.5 42,-578.5 85,-578.5 85,-557.5 42,-557.5"/>
<text text-anchor="start" x="51.5" y="-564" font-family="Linux libertine" font-size="10.00">input:</text>
<polygon fill="none" stroke="black" points="85,-557.5 85,-578.5 203,-578.5 203,-557.5 85,-557.5"/>
<text text-anchor="start" x="90" y="-564" font-family="Linux libertine" font-size="10.00">(128, 3, 256), (128, 3, 1) </text>
<polygon fill="none" stroke="black" points="42,-536.5 42,-557.5 85,-557.5 85,-536.5 42,-536.5"/>
<text text-anchor="start" x="47" y="-543" font-family="Linux libertine" font-size="10.00">output: </text>
<polygon fill="none" stroke="black" points="85,-536.5 85,-557.5 203,-557.5 203,-536.5 85,-536.5"/>
<text text-anchor="start" x="115.12" y="-543" font-family="Linux libertine" font-size="10.00">(128, 3, 256) </text>
</g>
<!-- 7&#45;&gt;12 -->
<g id="edge8" class="edge">
<title>7&#45;&gt;12</title>
<path fill="none" stroke="black" d="M92.22,-926.79C76.92,-898.18 51.5,-843.01 51.5,-792.5 51.5,-792.5 51.5,-792.5 51.5,-712.5 51.5,-668.05 56.4,-656.31 71.5,-614.5 74.76,-605.48 79.26,-596.12 83.8,-587.7"/>
<polygon fill="black" stroke="black" points="87.22,-589.76 89.05,-579.32 81.11,-586.34 87.22,-589.76"/>
</g>
<!-- 9 -->
<g id="node10" class="node">
<title>9</title>
<polygon fill="#c1ffc1" stroke="none" points="251,-812.5 80,-812.5 80,-770.5 251,-770.5 251,-812.5"/>
<polygon fill="none" stroke="black" points="80,-770.5 80,-812.5 141,-812.5 141,-770.5 80,-770.5"/>
<text text-anchor="start" x="84.62" y="-793.25" font-family="Linux libertine" font-size="10.00">LeakyReLU</text>
<text text-anchor="start" x="94.38" y="-782" font-family="Linux libertine" font-size="10.00">depth:4</text>
<polygon fill="none" stroke="black" points="141,-791.5 141,-812.5 184,-812.5 184,-791.5 141,-791.5"/>
<text text-anchor="start" x="150.5" y="-798" font-family="Linux libertine" font-size="10.00">input:</text>
<polygon fill="none" stroke="black" points="184,-791.5 184,-812.5 251,-812.5 251,-791.5 184,-791.5"/>
<text text-anchor="start" x="188.62" y="-798" font-family="Linux libertine" font-size="10.00">(128, 3, 256) </text>
<polygon fill="none" stroke="black" points="141,-770.5 141,-791.5 184,-791.5 184,-770.5 141,-770.5"/>
<text text-anchor="start" x="146" y="-777" font-family="Linux libertine" font-size="10.00">output: </text>
<polygon fill="none" stroke="black" points="184,-770.5 184,-791.5 251,-791.5 251,-770.5 184,-770.5"/>
<text text-anchor="start" x="188.62" y="-777" font-family="Linux libertine" font-size="10.00">(128, 3, 256) </text>
</g>
<!-- 8&#45;&gt;9 -->
<g id="edge10" class="edge">
<title>8&#45;&gt;9</title>
<path fill="none" stroke="black" d="M161.81,-848.53C162.32,-840.76 162.92,-831.69 163.48,-823.13"/>
<polygon fill="black" stroke="black" points="167.03,-823.54 164.2,-813.33 160.05,-823.08 167.03,-823.54"/>
</g>
<!-- 10 -->
<g id="node11" class="node">
<title>10</title>
<polygon fill="#c1ffc1" stroke="none" points="236.5,-734.5 84.5,-734.5 84.5,-692.5 236.5,-692.5 236.5,-734.5"/>
<polygon fill="none" stroke="black" points="84.5,-692.5 84.5,-734.5 126.5,-734.5 126.5,-692.5 84.5,-692.5"/>
<text text-anchor="start" x="92.38" y="-715.25" font-family="Linux libertine" font-size="10.00">Linear</text>
<text text-anchor="start" x="89.38" y="-704" font-family="Linux libertine" font-size="10.00">depth:4</text>
<polygon fill="none" stroke="black" points="126.5,-713.5 126.5,-734.5 169.5,-734.5 169.5,-713.5 126.5,-713.5"/>
<text text-anchor="start" x="136" y="-720" font-family="Linux libertine" font-size="10.00">input:</text>
<polygon fill="none" stroke="black" points="169.5,-713.5 169.5,-734.5 236.5,-734.5 236.5,-713.5 169.5,-713.5"/>
<text text-anchor="start" x="174.12" y="-720" font-family="Linux libertine" font-size="10.00">(128, 3, 256) </text>
<polygon fill="none" stroke="black" points="126.5,-692.5 126.5,-713.5 169.5,-713.5 169.5,-692.5 126.5,-692.5"/>
<text text-anchor="start" x="131.5" y="-699" font-family="Linux libertine" font-size="10.00">output: </text>
<polygon fill="none" stroke="black" points="169.5,-692.5 169.5,-713.5 236.5,-713.5 236.5,-692.5 169.5,-692.5"/>
<text text-anchor="start" x="179.38" y="-699" font-family="Linux libertine" font-size="10.00">(128, 3, 1) </text>
</g>
<!-- 9&#45;&gt;10 -->
<g id="edge11" class="edge">
<title>9&#45;&gt;10</title>
<path fill="none" stroke="black" d="M164.19,-770.53C163.68,-762.76 163.08,-753.69 162.52,-745.13"/>
<polygon fill="black" stroke="black" points="165.95,-745.08 161.8,-735.33 158.97,-745.54 165.95,-745.08"/>
</g>
<!-- 11 -->
<g id="node12" class="node">
<title>11</title>
<polygon fill="#c1ffc1" stroke="none" points="226.5,-656.5 80.5,-656.5 80.5,-614.5 226.5,-614.5 226.5,-656.5"/>
<polygon fill="none" stroke="black" points="80.5,-614.5 80.5,-656.5 126.5,-656.5 126.5,-614.5 80.5,-614.5"/>
<text text-anchor="start" x="85.12" y="-637.25" font-family="Linux libertine" font-size="10.00">Softmax</text>
<text text-anchor="start" x="87.38" y="-626" font-family="Linux libertine" font-size="10.00">depth:4</text>
<polygon fill="none" stroke="black" points="126.5,-635.5 126.5,-656.5 169.5,-656.5 169.5,-635.5 126.5,-635.5"/>
<text text-anchor="start" x="136" y="-642" font-family="Linux libertine" font-size="10.00">input:</text>
<polygon fill="none" stroke="black" points="169.5,-635.5 169.5,-656.5 226.5,-656.5 226.5,-635.5 169.5,-635.5"/>
<text text-anchor="start" x="174.38" y="-642" font-family="Linux libertine" font-size="10.00">(128, 3, 1) </text>
<polygon fill="none" stroke="black" points="126.5,-614.5 126.5,-635.5 169.5,-635.5 169.5,-614.5 126.5,-614.5"/>
<text text-anchor="start" x="131.5" y="-621" font-family="Linux libertine" font-size="10.00">output: </text>
<polygon fill="none" stroke="black" points="169.5,-614.5 169.5,-635.5 226.5,-635.5 226.5,-614.5 169.5,-614.5"/>
<text text-anchor="start" x="174.38" y="-621" font-family="Linux libertine" font-size="10.00">(128, 3, 1) </text>
</g>
<!-- 10&#45;&gt;11 -->
<g id="edge12" class="edge">
<title>10&#45;&gt;11</title>
<path fill="none" stroke="black" d="M158.66,-692.53C157.95,-684.76 157.11,-675.69 156.32,-667.13"/>
<polygon fill="black" stroke="black" points="159.73,-666.97 155.33,-657.33 152.76,-667.61 159.73,-666.97"/>
</g>
<!-- 11&#45;&gt;12 -->
<g id="edge13" class="edge">
<title>11&#45;&gt;12</title>
<path fill="none" stroke="black" d="M139.84,-614.53C134.16,-606.24 127.47,-596.46 121.28,-587.41"/>
<polygon fill="black" stroke="black" points="123.61,-585.61 115.07,-579.33 117.83,-589.56 123.61,-585.61"/>
</g>
<!-- 13 -->
<g id="node14" class="node">
<title>13</title>
<polygon fill="aliceblue" stroke="none" points="177.5,-500.5 25.5,-500.5 25.5,-458.5 177.5,-458.5 177.5,-500.5"/>
<polygon fill="none" stroke="black" points="25.5,-458.5 25.5,-500.5 67.5,-500.5 67.5,-458.5 25.5,-458.5"/>
<text text-anchor="start" x="37.12" y="-481.25" font-family="Linux libertine" font-size="10.00">sum</text>
<text text-anchor="start" x="30.38" y="-470" font-family="Linux libertine" font-size="10.00">depth:3</text>
<polygon fill="none" stroke="black" points="67.5,-479.5 67.5,-500.5 110.5,-500.5 110.5,-479.5 67.5,-479.5"/>
<text text-anchor="start" x="77" y="-486" font-family="Linux libertine" font-size="10.00">input:</text>
<polygon fill="none" stroke="black" points="110.5,-479.5 110.5,-500.5 177.5,-500.5 177.5,-479.5 110.5,-479.5"/>
<text text-anchor="start" x="115.12" y="-486" font-family="Linux libertine" font-size="10.00">(128, 3, 256) </text>
<polygon fill="none" stroke="black" points="67.5,-458.5 67.5,-479.5 110.5,-479.5 110.5,-458.5 67.5,-458.5"/>
<text text-anchor="start" x="72.5" y="-465" font-family="Linux libertine" font-size="10.00">output: </text>
<polygon fill="none" stroke="black" points="110.5,-458.5 110.5,-479.5 177.5,-479.5 177.5,-458.5 110.5,-458.5"/>
<text text-anchor="start" x="120.75" y="-465" font-family="Linux libertine" font-size="10.00">(128, 256) </text>
</g>
<!-- 12&#45;&gt;13 -->
<g id="edge14" class="edge">
<title>12&#45;&gt;13</title>
<path fill="none" stroke="black" d="M101.5,-536.53C101.5,-528.76 101.5,-519.69 101.5,-511.13"/>
<polygon fill="black" stroke="black" points="105,-511.33 101.5,-501.33 98,-511.33 105,-511.33"/>
</g>
<!-- 14 -->
<g id="node15" class="node">
<title>14</title>
<polygon fill="#c1ffc1" stroke="none" points="186,-422.5 17,-422.5 17,-380.5 186,-380.5 186,-422.5"/>
<polygon fill="none" stroke="black" points="17,-380.5 17,-422.5 87,-422.5 87,-380.5 17,-380.5"/>
<text text-anchor="start" x="22" y="-403.25" font-family="Linux libertine" font-size="10.00">BatchNorm1d</text>
<text text-anchor="start" x="35.88" y="-392" font-family="Linux libertine" font-size="10.00">depth:2</text>
<polygon fill="none" stroke="black" points="87,-401.5 87,-422.5 130,-422.5 130,-401.5 87,-401.5"/>
<text text-anchor="start" x="96.5" y="-408" font-family="Linux libertine" font-size="10.00">input:</text>
<polygon fill="none" stroke="black" points="130,-401.5 130,-422.5 186,-422.5 186,-401.5 130,-401.5"/>
<text text-anchor="start" x="134.75" y="-408" font-family="Linux libertine" font-size="10.00">(128, 256) </text>
<polygon fill="none" stroke="black" points="87,-380.5 87,-401.5 130,-401.5 130,-380.5 87,-380.5"/>
<text text-anchor="start" x="92" y="-387" font-family="Linux libertine" font-size="10.00">output: </text>
<polygon fill="none" stroke="black" points="130,-380.5 130,-401.5 186,-401.5 186,-380.5 130,-380.5"/>
<text text-anchor="start" x="134.75" y="-387" font-family="Linux libertine" font-size="10.00">(128, 256) </text>
</g>
<!-- 13&#45;&gt;14 -->
<g id="edge15" class="edge">
<title>13&#45;&gt;14</title>
<path fill="none" stroke="black" d="M101.5,-458.53C101.5,-450.76 101.5,-441.69 101.5,-433.13"/>
<polygon fill="black" stroke="black" points="105,-433.33 101.5,-423.33 98,-433.33 105,-433.33"/>
</g>
<!-- 15 -->
<g id="node16" class="node">
<title>15</title>
<polygon fill="#c1ffc1" stroke="none" points="172,-344.5 31,-344.5 31,-302.5 172,-302.5 172,-344.5"/>
<polygon fill="none" stroke="black" points="31,-302.5 31,-344.5 73,-344.5 73,-302.5 31,-302.5"/>
<text text-anchor="start" x="38.88" y="-325.25" font-family="Linux libertine" font-size="10.00">Linear</text>
<text text-anchor="start" x="35.88" y="-314" font-family="Linux libertine" font-size="10.00">depth:2</text>
<polygon fill="none" stroke="black" points="73,-323.5 73,-344.5 116,-344.5 116,-323.5 73,-323.5"/>
<text text-anchor="start" x="82.5" y="-330" font-family="Linux libertine" font-size="10.00">input:</text>
<polygon fill="none" stroke="black" points="116,-323.5 116,-344.5 172,-344.5 172,-323.5 116,-323.5"/>
<text text-anchor="start" x="120.75" y="-330" font-family="Linux libertine" font-size="10.00">(128, 256) </text>
<polygon fill="none" stroke="black" points="73,-302.5 73,-323.5 116,-323.5 116,-302.5 73,-302.5"/>
<text text-anchor="start" x="78" y="-309" font-family="Linux libertine" font-size="10.00">output: </text>
<polygon fill="none" stroke="black" points="116,-302.5 116,-323.5 172,-323.5 172,-302.5 116,-302.5"/>
<text text-anchor="start" x="120.75" y="-309" font-family="Linux libertine" font-size="10.00">(128, 256) </text>
</g>
<!-- 14&#45;&gt;15 -->
<g id="edge16" class="edge">
<title>14&#45;&gt;15</title>
<path fill="none" stroke="black" d="M101.5,-380.53C101.5,-372.76 101.5,-363.69 101.5,-355.13"/>
<polygon fill="black" stroke="black" points="105,-355.33 101.5,-345.33 98,-355.33 105,-355.33"/>
</g>
<!-- 16 -->
<g id="node17" class="node">
<title>16</title>
<polygon fill="#c1ffc1" stroke="none" points="181.5,-266.5 21.5,-266.5 21.5,-224.5 181.5,-224.5 181.5,-266.5"/>
<polygon fill="none" stroke="black" points="21.5,-224.5 21.5,-266.5 82.5,-266.5 82.5,-224.5 21.5,-224.5"/>
<text text-anchor="start" x="26.12" y="-247.25" font-family="Linux libertine" font-size="10.00">LeakyReLU</text>
<text text-anchor="start" x="35.88" y="-236" font-family="Linux libertine" font-size="10.00">depth:2</text>
<polygon fill="none" stroke="black" points="82.5,-245.5 82.5,-266.5 125.5,-266.5 125.5,-245.5 82.5,-245.5"/>
<text text-anchor="start" x="92" y="-252" font-family="Linux libertine" font-size="10.00">input:</text>
<polygon fill="none" stroke="black" points="125.5,-245.5 125.5,-266.5 181.5,-266.5 181.5,-245.5 125.5,-245.5"/>
<text text-anchor="start" x="130.25" y="-252" font-family="Linux libertine" font-size="10.00">(128, 256) </text>
<polygon fill="none" stroke="black" points="82.5,-224.5 82.5,-245.5 125.5,-245.5 125.5,-224.5 82.5,-224.5"/>
<text text-anchor="start" x="87.5" y="-231" font-family="Linux libertine" font-size="10.00">output: </text>
<polygon fill="none" stroke="black" points="125.5,-224.5 125.5,-245.5 181.5,-245.5 181.5,-224.5 125.5,-224.5"/>
<text text-anchor="start" x="130.25" y="-231" font-family="Linux libertine" font-size="10.00">(128, 256) </text>
</g>
<!-- 15&#45;&gt;16 -->
<g id="edge17" class="edge">
<title>15&#45;&gt;16</title>
<path fill="none" stroke="black" d="M101.5,-302.53C101.5,-294.76 101.5,-285.69 101.5,-277.13"/>
<polygon fill="black" stroke="black" points="105,-277.33 101.5,-267.33 98,-277.33 105,-277.33"/>
</g>
<!-- 17 -->
<g id="node18" class="node">
<title>17</title>
<polygon fill="#c1ffc1" stroke="none" points="186,-188.5 17,-188.5 17,-146.5 186,-146.5 186,-188.5"/>
<polygon fill="none" stroke="black" points="17,-146.5 17,-188.5 87,-188.5 87,-146.5 17,-146.5"/>
<text text-anchor="start" x="22" y="-169.25" font-family="Linux libertine" font-size="10.00">BatchNorm1d</text>
<text text-anchor="start" x="35.88" y="-158" font-family="Linux libertine" font-size="10.00">depth:2</text>
<polygon fill="none" stroke="black" points="87,-167.5 87,-188.5 130,-188.5 130,-167.5 87,-167.5"/>
<text text-anchor="start" x="96.5" y="-174" font-family="Linux libertine" font-size="10.00">input:</text>
<polygon fill="none" stroke="black" points="130,-167.5 130,-188.5 186,-188.5 186,-167.5 130,-167.5"/>
<text text-anchor="start" x="134.75" y="-174" font-family="Linux libertine" font-size="10.00">(128, 256) </text>
<polygon fill="none" stroke="black" points="87,-146.5 87,-167.5 130,-167.5 130,-146.5 87,-146.5"/>
<text text-anchor="start" x="92" y="-153" font-family="Linux libertine" font-size="10.00">output: </text>
<polygon fill="none" stroke="black" points="130,-146.5 130,-167.5 186,-167.5 186,-146.5 130,-146.5"/>
<text text-anchor="start" x="134.75" y="-153" font-family="Linux libertine" font-size="10.00">(128, 256) </text>
</g>
<!-- 16&#45;&gt;17 -->
<g id="edge18" class="edge">
<title>16&#45;&gt;17</title>
<path fill="none" stroke="black" d="M101.5,-224.53C101.5,-216.76 101.5,-207.69 101.5,-199.13"/>
<polygon fill="black" stroke="black" points="105,-199.33 101.5,-189.33 98,-199.33 105,-199.33"/>
</g>
<!-- 18 -->
<g id="node19" class="node">
<title>18</title>
<polygon fill="#c1ffc1" stroke="none" points="172,-110.5 31,-110.5 31,-68.5 172,-68.5 172,-110.5"/>
<polygon fill="none" stroke="black" points="31,-68.5 31,-110.5 73,-110.5 73,-68.5 31,-68.5"/>
<text text-anchor="start" x="38.88" y="-91.25" font-family="Linux libertine" font-size="10.00">Linear</text>
<text text-anchor="start" x="35.88" y="-80" font-family="Linux libertine" font-size="10.00">depth:2</text>
<polygon fill="none" stroke="black" points="73,-89.5 73,-110.5 116,-110.5 116,-89.5 73,-89.5"/>
<text text-anchor="start" x="82.5" y="-96" font-family="Linux libertine" font-size="10.00">input:</text>
<polygon fill="none" stroke="black" points="116,-89.5 116,-110.5 172,-110.5 172,-89.5 116,-89.5"/>
<text text-anchor="start" x="120.75" y="-96" font-family="Linux libertine" font-size="10.00">(128, 256) </text>
<polygon fill="none" stroke="black" points="73,-68.5 73,-89.5 116,-89.5 116,-68.5 73,-68.5"/>
<text text-anchor="start" x="78" y="-75" font-family="Linux libertine" font-size="10.00">output: </text>
<polygon fill="none" stroke="black" points="116,-68.5 116,-89.5 172,-89.5 172,-68.5 116,-68.5"/>
<text text-anchor="start" x="123.38" y="-75" font-family="Linux libertine" font-size="10.00">(128, 10) </text>
</g>
<!-- 17&#45;&gt;18 -->
<g id="edge19" class="edge">
<title>17&#45;&gt;18</title>
<path fill="none" stroke="black" d="M101.5,-146.53C101.5,-138.76 101.5,-129.69 101.5,-121.13"/>
<polygon fill="black" stroke="black" points="105,-121.33 101.5,-111.33 98,-121.33 105,-121.33"/>
</g>
<!-- 19 -->
<g id="node20" class="node">
<title>19</title>
<polygon fill="lightyellow" stroke="none" points="159.12,-32.5 43.88,-32.5 43.88,0 159.12,0 159.12,-32.5"/>
<polygon fill="none" stroke="black" points="43.88,0 43.88,-32.5 110.88,-32.5 110.88,0 43.88,0"/>
<text text-anchor="start" x="48.88" y="-18" font-family="Linux libertine" font-size="10.00">output&#45;tensor</text>
<text text-anchor="start" x="61.25" y="-6.75" font-family="Linux libertine" font-size="10.00">depth:0</text>
<polygon fill="none" stroke="black" points="110.88,0 110.88,-32.5 159.12,-32.5 159.12,0 110.88,0"/>
<text text-anchor="start" x="115.88" y="-12.38" font-family="Linux libertine" font-size="10.00">(128, 10)</text>
</g>
<!-- 18&#45;&gt;19 -->
<g id="edge20" class="edge">
<title>18&#45;&gt;19</title>
<path fill="none" stroke="black" d="M101.5,-68.65C101.5,-60.73 101.5,-51.49 101.5,-43.06"/>
<polygon fill="black" stroke="black" points="105,-43.25 101.5,-33.25 98,-43.25 105,-43.25"/>
</g>
</g>
</svg>
