<?xml version="1.0" encoding="UTF-8" standalone="no"?>
<!DOCTYPE svg PUBLIC "-//W3C//DTD SVG 1.1//EN"
 "http://www.w3.org/Graphics/SVG/1.1/DTD/svg11.dtd">
<!-- Generated by graphviz version 8.0.1 (20230327.1645)
 -->
<!-- Title: model Pages: 1 -->
<svg width="184pt" height="1123pt"
 viewBox="0.00 0.00 184.35 1123.00" xmlns="http://www.w3.org/2000/svg" xmlns:xlink="http://www.w3.org/1999/xlink">
<g id="graph0" class="graph" transform="scale(0.703634 0.703634) rotate(0) translate(4 1592)">
<title>model</title>
<polygon fill="white" stroke="none" points="-4,4 -4,-1592 258,-1592 258,4 -4,4"/>
<g id="clust1" class="cluster">
<title>cluster_2</title>
<polygon fill="none" stroke="black" stroke-dasharray="5,2" points="8,-8 8,-1548 246,-1548 246,-8 8,-8"/>
<text text-anchor="middle" x="41" y="-1534.4" font-family="Times,serif" font-size="12.00">Sequential</text>
</g>
<g id="clust2" class="cluster">
<title>cluster_3</title>
<polygon fill="none" stroke="black" stroke-dasharray="5,2" points="16,-466 16,-1519 238,-1519 238,-466 16,-466"/>
<text text-anchor="middle" x="48" y="-1505.4" font-family="Times,serif" font-size="12.00">Combiner</text>
</g>
<g id="clust3" class="cluster">
<title>cluster_4</title>
<polygon fill="none" stroke="black" stroke-dasharray="5,2" points="30,-943 30,-1490 224,-1490 224,-943 30,-943"/>
<text text-anchor="middle" x="63" y="-1476.4" font-family="Times,serif" font-size="12.00">Sequential</text>
</g>
<g id="clust4" class="cluster">
<title>cluster_5</title>
<polygon fill="none" stroke="black" stroke-dasharray="5,2" points="26,-622 26,-935 216,-935 216,-622 26,-622"/>
<text text-anchor="middle" x="59" y="-921.4" font-family="Times,serif" font-size="12.00">Sequential</text>
</g>
<!-- 0 -->
<g id="node1" class="node">
<title>0</title>
<polygon fill="lightyellow" stroke="none" points="202,-1588 52,-1588 52,-1556 202,-1556 202,-1588"/>
<polygon fill="none" stroke="black" points="52,-1556 52,-1588 114,-1588 114,-1556 52,-1556"/>
<text text-anchor="start" x="57" y="-1575" font-family="Linux libertine" font-size="10.00">input&#45;tensor</text>
<text text-anchor="start" x="66.5" y="-1564" font-family="Linux libertine" font-size="10.00">depth:0</text>
<polygon fill="none" stroke="black" points="114,-1556 114,-1588 202,-1588 202,-1556 114,-1556"/>
<text text-anchor="start" x="119" y="-1569.5" font-family="Linux libertine" font-size="10.00">(128, 3, 1, 28, 28)</text>
</g>
<!-- 1 -->
<g id="node2" class="node">
<title>1</title>
<polygon fill="#c1ffc1" stroke="none" points="216,-1461 38,-1461 38,-1419 216,-1419 216,-1461"/>
<polygon fill="none" stroke="black" points="38,-1419 38,-1461 81,-1461 81,-1419 38,-1419"/>
<text text-anchor="start" x="44" y="-1443" font-family="Linux libertine" font-size="10.00">Flatten</text>
<text text-anchor="start" x="43" y="-1432" font-family="Linux libertine" font-size="10.00">depth:4</text>
<polygon fill="none" stroke="black" points="81,-1440 81,-1461 125,-1461 125,-1440 81,-1440"/>
<text text-anchor="start" x="90.5" y="-1448" font-family="Linux libertine" font-size="10.00">input:</text>
<polygon fill="none" stroke="black" points="125,-1440 125,-1461 216,-1461 216,-1440 125,-1440"/>
<text text-anchor="start" x="130" y="-1448" font-family="Linux libertine" font-size="10.00">(128, 3, 1, 28, 28) </text>
<polygon fill="none" stroke="black" points="81,-1419 81,-1440 125,-1440 125,-1419 81,-1419"/>
<text text-anchor="start" x="86" y="-1427" font-family="Linux libertine" font-size="10.00">output: </text>
<polygon fill="none" stroke="black" points="125,-1419 125,-1440 216,-1440 216,-1419 125,-1419"/>
<text text-anchor="start" x="141.5" y="-1427" font-family="Linux libertine" font-size="10.00">(128, 3, 784) </text>
</g>
<!-- 0&#45;&gt;1 -->
<g id="edge1" class="edge">
<title>0&#45;&gt;1</title>
<path fill="none" stroke="black" d="M127,-1556.09C127,-1535.55 127,-1498.07 127,-1471.47"/>
<polygon fill="black" stroke="black" points="130.5,-1471.81 127,-1461.81 123.5,-1471.81 130.5,-1471.81"/>
</g>
<!-- 2 -->
<g id="node3" class="node">
<title>2</title>
<polygon fill="#c1ffc1" stroke="none" points="204.5,-1383 49.5,-1383 49.5,-1341 204.5,-1341 204.5,-1383"/>
<polygon fill="none" stroke="black" points="49.5,-1341 49.5,-1383 92.5,-1383 92.5,-1341 49.5,-1341"/>
<text text-anchor="start" x="57.5" y="-1365" font-family="Linux libertine" font-size="10.00">Linear</text>
<text text-anchor="start" x="54.5" y="-1354" font-family="Linux libertine" font-size="10.00">depth:4</text>
<polygon fill="none" stroke="black" points="92.5,-1362 92.5,-1383 136.5,-1383 136.5,-1362 92.5,-1362"/>
<text text-anchor="start" x="102" y="-1370" font-family="Linux libertine" font-size="10.00">input:</text>
<polygon fill="none" stroke="black" points="136.5,-1362 136.5,-1383 204.5,-1383 204.5,-1362 136.5,-1362"/>
<text text-anchor="start" x="141.5" y="-1370" font-family="Linux libertine" font-size="10.00">(128, 3, 784) </text>
<polygon fill="none" stroke="black" points="92.5,-1341 92.5,-1362 136.5,-1362 136.5,-1341 92.5,-1341"/>
<text text-anchor="start" x="97.5" y="-1349" font-family="Linux libertine" font-size="10.00">output: </text>
<polygon fill="none" stroke="black" points="136.5,-1341 136.5,-1362 204.5,-1362 204.5,-1341 136.5,-1341"/>
<text text-anchor="start" x="141.5" y="-1349" font-family="Linux libertine" font-size="10.00">(128, 3, 256) </text>
</g>
<!-- 1&#45;&gt;2 -->
<g id="edge2" class="edge">
<title>1&#45;&gt;2</title>
<path fill="none" stroke="black" d="M127,-1419.03C127,-1411.26 127,-1402.19 127,-1393.63"/>
<polygon fill="black" stroke="black" points="130.5,-1393.83 127,-1383.83 123.5,-1393.83 130.5,-1393.83"/>
</g>
<!-- 3 -->
<g id="node4" class="node">
<title>3</title>
<polygon fill="#c1ffc1" stroke="none" points="214,-1305 40,-1305 40,-1263 214,-1263 214,-1305"/>
<polygon fill="none" stroke="black" points="40,-1263 40,-1305 102,-1305 102,-1263 40,-1263"/>
<text text-anchor="start" x="45" y="-1287" font-family="Linux libertine" font-size="10.00">LeakyReLU</text>
<text text-anchor="start" x="54.5" y="-1276" font-family="Linux libertine" font-size="10.00">depth:4</text>
<polygon fill="none" stroke="black" points="102,-1284 102,-1305 146,-1305 146,-1284 102,-1284"/>
<text text-anchor="start" x="111.5" y="-1292" font-family="Linux libertine" font-size="10.00">input:</text>
<polygon fill="none" stroke="black" points="146,-1284 146,-1305 214,-1305 214,-1284 146,-1284"/>
<text text-anchor="start" x="151" y="-1292" font-family="Linux libertine" font-size="10.00">(128, 3, 256) </text>
<polygon fill="none" stroke="black" points="102,-1263 102,-1284 146,-1284 146,-1263 102,-1263"/>
<text text-anchor="start" x="107" y="-1271" font-family="Linux libertine" font-size="10.00">output: </text>
<polygon fill="none" stroke="black" points="146,-1263 146,-1284 214,-1284 214,-1263 146,-1263"/>
<text text-anchor="start" x="151" y="-1271" font-family="Linux libertine" font-size="10.00">(128, 3, 256) </text>
</g>
<!-- 2&#45;&gt;3 -->
<g id="edge3" class="edge">
<title>2&#45;&gt;3</title>
<path fill="none" stroke="black" d="M127,-1341.03C127,-1333.26 127,-1324.19 127,-1315.63"/>
<polygon fill="black" stroke="black" points="130.5,-1315.83 127,-1305.83 123.5,-1315.83 130.5,-1315.83"/>
</g>
<!-- 4 -->
<g id="node5" class="node">
<title>4</title>
<polygon fill="#c1ffc1" stroke="none" points="204.5,-1227 49.5,-1227 49.5,-1185 204.5,-1185 204.5,-1227"/>
<polygon fill="none" stroke="black" points="49.5,-1185 49.5,-1227 92.5,-1227 92.5,-1185 49.5,-1185"/>
<text text-anchor="start" x="57.5" y="-1209" font-family="Linux libertine" font-size="10.00">Linear</text>
<text text-anchor="start" x="54.5" y="-1198" font-family="Linux libertine" font-size="10.00">depth:4</text>
<polygon fill="none" stroke="black" points="92.5,-1206 92.5,-1227 136.5,-1227 136.5,-1206 92.5,-1206"/>
<text text-anchor="start" x="102" y="-1214" font-family="Linux libertine" font-size="10.00">input:</text>
<polygon fill="none" stroke="black" points="136.5,-1206 136.5,-1227 204.5,-1227 204.5,-1206 136.5,-1206"/>
<text text-anchor="start" x="141.5" y="-1214" font-family="Linux libertine" font-size="10.00">(128, 3, 256) </text>
<polygon fill="none" stroke="black" points="92.5,-1185 92.5,-1206 136.5,-1206 136.5,-1185 92.5,-1185"/>
<text text-anchor="start" x="97.5" y="-1193" font-family="Linux libertine" font-size="10.00">output: </text>
<polygon fill="none" stroke="black" points="136.5,-1185 136.5,-1206 204.5,-1206 204.5,-1185 136.5,-1185"/>
<text text-anchor="start" x="141.5" y="-1193" font-family="Linux libertine" font-size="10.00">(128, 3, 256) </text>
</g>
<!-- 3&#45;&gt;4 -->
<g id="edge4" class="edge">
<title>3&#45;&gt;4</title>
<path fill="none" stroke="black" d="M127,-1263.03C127,-1255.26 127,-1246.19 127,-1237.63"/>
<polygon fill="black" stroke="black" points="130.5,-1237.83 127,-1227.83 123.5,-1237.83 130.5,-1237.83"/>
</g>
<!-- 5 -->
<g id="node6" class="node">
<title>5</title>
<polygon fill="#c1ffc1" stroke="none" points="214,-1149 40,-1149 40,-1107 214,-1107 214,-1149"/>
<polygon fill="none" stroke="black" points="40,-1107 40,-1149 102,-1149 102,-1107 40,-1107"/>
<text text-anchor="start" x="45" y="-1131" font-family="Linux libertine" font-size="10.00">LeakyReLU</text>
<text text-anchor="start" x="54.5" y="-1120" font-family="Linux libertine" font-size="10.00">depth:4</text>
<polygon fill="none" stroke="black" points="102,-1128 102,-1149 146,-1149 146,-1128 102,-1128"/>
<text text-anchor="start" x="111.5" y="-1136" font-family="Linux libertine" font-size="10.00">input:</text>
<polygon fill="none" stroke="black" points="146,-1128 146,-1149 214,-1149 214,-1128 146,-1128"/>
<text text-anchor="start" x="151" y="-1136" font-family="Linux libertine" font-size="10.00">(128, 3, 256) </text>
<polygon fill="none" stroke="black" points="102,-1107 102,-1128 146,-1128 146,-1107 102,-1107"/>
<text text-anchor="start" x="107" y="-1115" font-family="Linux libertine" font-size="10.00">output: </text>
<polygon fill="none" stroke="black" points="146,-1107 146,-1128 214,-1128 214,-1107 146,-1107"/>
<text text-anchor="start" x="151" y="-1115" font-family="Linux libertine" font-size="10.00">(128, 3, 256) </text>
</g>
<!-- 4&#45;&gt;5 -->
<g id="edge5" class="edge">
<title>4&#45;&gt;5</title>
<path fill="none" stroke="black" d="M127,-1185.03C127,-1177.26 127,-1168.19 127,-1159.63"/>
<polygon fill="black" stroke="black" points="130.5,-1159.83 127,-1149.83 123.5,-1159.83 130.5,-1159.83"/>
</g>
<!-- 6 -->
<g id="node7" class="node">
<title>6</title>
<polygon fill="#c1ffc1" stroke="none" points="204.5,-1071 49.5,-1071 49.5,-1029 204.5,-1029 204.5,-1071"/>
<polygon fill="none" stroke="black" points="49.5,-1029 49.5,-1071 92.5,-1071 92.5,-1029 49.5,-1029"/>
<text text-anchor="start" x="57.5" y="-1053" font-family="Linux libertine" font-size="10.00">Linear</text>
<text text-anchor="start" x="54.5" y="-1042" font-family="Linux libertine" font-size="10.00">depth:4</text>
<polygon fill="none" stroke="black" points="92.5,-1050 92.5,-1071 136.5,-1071 136.5,-1050 92.5,-1050"/>
<text text-anchor="start" x="102" y="-1058" font-family="Linux libertine" font-size="10.00">input:</text>
<polygon fill="none" stroke="black" points="136.5,-1050 136.5,-1071 204.5,-1071 204.5,-1050 136.5,-1050"/>
<text text-anchor="start" x="141.5" y="-1058" font-family="Linux libertine" font-size="10.00">(128, 3, 256) </text>
<polygon fill="none" stroke="black" points="92.5,-1029 92.5,-1050 136.5,-1050 136.5,-1029 92.5,-1029"/>
<text text-anchor="start" x="97.5" y="-1037" font-family="Linux libertine" font-size="10.00">output: </text>
<polygon fill="none" stroke="black" points="136.5,-1029 136.5,-1050 204.5,-1050 204.5,-1029 136.5,-1029"/>
<text text-anchor="start" x="141.5" y="-1037" font-family="Linux libertine" font-size="10.00">(128, 3, 256) </text>
</g>
<!-- 5&#45;&gt;6 -->
<g id="edge6" class="edge">
<title>5&#45;&gt;6</title>
<path fill="none" stroke="black" d="M127,-1107.03C127,-1099.26 127,-1090.19 127,-1081.63"/>
<polygon fill="black" stroke="black" points="130.5,-1081.83 127,-1071.83 123.5,-1081.83 130.5,-1081.83"/>
</g>
<!-- 7 -->
<g id="node8" class="node">
<title>7</title>
<polygon fill="#c1ffc1" stroke="none" points="214,-993 40,-993 40,-951 214,-951 214,-993"/>
<polygon fill="none" stroke="black" points="40,-951 40,-993 102,-993 102,-951 40,-951"/>
<text text-anchor="start" x="45" y="-975" font-family="Linux libertine" font-size="10.00">LeakyReLU</text>
<text text-anchor="start" x="54.5" y="-964" font-family="Linux libertine" font-size="10.00">depth:4</text>
<polygon fill="none" stroke="black" points="102,-972 102,-993 146,-993 146,-972 102,-972"/>
<text text-anchor="start" x="111.5" y="-980" font-family="Linux libertine" font-size="10.00">input:</text>
<polygon fill="none" stroke="black" points="146,-972 146,-993 214,-993 214,-972 146,-972"/>
<text text-anchor="start" x="151" y="-980" font-family="Linux libertine" font-size="10.00">(128, 3, 256) </text>
<polygon fill="none" stroke="black" points="102,-951 102,-972 146,-972 146,-951 102,-951"/>
<text text-anchor="start" x="107" y="-959" font-family="Linux libertine" font-size="10.00">output: </text>
<polygon fill="none" stroke="black" points="146,-951 146,-972 214,-972 214,-951 146,-951"/>
<text text-anchor="start" x="151" y="-959" font-family="Linux libertine" font-size="10.00">(128, 3, 256) </text>
</g>
<!-- 6&#45;&gt;7 -->
<g id="edge7" class="edge">
<title>6&#45;&gt;7</title>
<path fill="none" stroke="black" d="M127,-1029.03C127,-1021.26 127,-1012.19 127,-1003.63"/>
<polygon fill="black" stroke="black" points="130.5,-1003.83 127,-993.83 123.5,-1003.83 130.5,-1003.83"/>
</g>
<!-- 8 -->
<g id="node9" class="node">
<title>8</title>
<polygon fill="#c1ffc1" stroke="none" points="201.5,-906 46.5,-906 46.5,-864 201.5,-864 201.5,-906"/>
<polygon fill="none" stroke="black" points="46.5,-864 46.5,-906 89.5,-906 89.5,-864 46.5,-864"/>
<text text-anchor="start" x="54.5" y="-888" font-family="Linux libertine" font-size="10.00">Linear</text>
<text text-anchor="start" x="51.5" y="-877" font-family="Linux libertine" font-size="10.00">depth:4</text>
<polygon fill="none" stroke="black" points="89.5,-885 89.5,-906 133.5,-906 133.5,-885 89.5,-885"/>
<text text-anchor="start" x="99" y="-893" font-family="Linux libertine" font-size="10.00">input:</text>
<polygon fill="none" stroke="black" points="133.5,-885 133.5,-906 201.5,-906 201.5,-885 133.5,-885"/>
<text text-anchor="start" x="138.5" y="-893" font-family="Linux libertine" font-size="10.00">(128, 3, 256) </text>
<polygon fill="none" stroke="black" points="89.5,-864 89.5,-885 133.5,-885 133.5,-864 89.5,-864"/>
<text text-anchor="start" x="94.5" y="-872" font-family="Linux libertine" font-size="10.00">output: </text>
<polygon fill="none" stroke="black" points="133.5,-864 133.5,-885 201.5,-885 201.5,-864 133.5,-864"/>
<text text-anchor="start" x="138.5" y="-872" font-family="Linux libertine" font-size="10.00">(128, 3, 256) </text>
</g>
<!-- 7&#45;&gt;8 -->
<g id="edge9" class="edge">
<title>7&#45;&gt;8</title>
<path fill="none" stroke="black" d="M126.3,-951.29C125.94,-941.06 125.49,-928.34 125.09,-916.84"/>
<polygon fill="black" stroke="black" points="128.55,-916.77 124.7,-906.9 121.56,-917.02 128.55,-916.77"/>
</g>
<!-- 12 -->
<g id="node13" class="node">
<title>12</title>
<polygon fill="aliceblue" stroke="none" points="230,-594 24,-594 24,-552 230,-552 230,-594"/>
<polygon fill="none" stroke="black" points="24,-552 24,-594 67,-594 67,-552 24,-552"/>
<text text-anchor="start" x="37.5" y="-576" font-family="Linux libertine" font-size="10.00">mul</text>
<text text-anchor="start" x="29" y="-565" font-family="Linux libertine" font-size="10.00">depth:3</text>
<polygon fill="none" stroke="black" points="67,-573 67,-594 111,-594 111,-573 67,-573"/>
<text text-anchor="start" x="76.5" y="-581" font-family="Linux libertine" font-size="10.00">input:</text>
<polygon fill="none" stroke="black" points="111,-573 111,-594 230,-594 230,-573 111,-573"/>
<text text-anchor="start" x="116" y="-581" font-family="Linux libertine" font-size="10.00">(128, 3, 256), (128, 3, 1) </text>
<polygon fill="none" stroke="black" points="67,-552 67,-573 111,-573 111,-552 67,-552"/>
<text text-anchor="start" x="72" y="-560" font-family="Linux libertine" font-size="10.00">output: </text>
<polygon fill="none" stroke="black" points="111,-552 111,-573 230,-573 230,-552 111,-552"/>
<text text-anchor="start" x="141.5" y="-560" font-family="Linux libertine" font-size="10.00">(128, 3, 256) </text>
</g>
<!-- 7&#45;&gt;12 -->
<g id="edge8" class="edge">
<title>7&#45;&gt;12</title>
<path fill="none" stroke="black" d="M202.62,-951.08C209.32,-946.73 215.32,-941.44 220,-935 253.23,-889.26 227,-864.53 227,-808 227,-808 227,-808 227,-728 227,-680.79 245.88,-661.49 220,-622 214.1,-613 205.95,-605.59 196.9,-599.52"/>
<polygon fill="black" stroke="black" points="198.98,-596.08 188.61,-593.89 195.35,-602.07 198.98,-596.08"/>
</g>
<!-- 9 -->
<g id="node10" class="node">
<title>9</title>
<polygon fill="#c1ffc1" stroke="none" points="208,-828 34,-828 34,-786 208,-786 208,-828"/>
<polygon fill="none" stroke="black" points="34,-786 34,-828 96,-828 96,-786 34,-786"/>
<text text-anchor="start" x="39" y="-810" font-family="Linux libertine" font-size="10.00">LeakyReLU</text>
<text text-anchor="start" x="48.5" y="-799" font-family="Linux libertine" font-size="10.00">depth:4</text>
<polygon fill="none" stroke="black" points="96,-807 96,-828 140,-828 140,-807 96,-807"/>
<text text-anchor="start" x="105.5" y="-815" font-family="Linux libertine" font-size="10.00">input:</text>
<polygon fill="none" stroke="black" points="140,-807 140,-828 208,-828 208,-807 140,-807"/>
<text text-anchor="start" x="145" y="-815" font-family="Linux libertine" font-size="10.00">(128, 3, 256) </text>
<polygon fill="none" stroke="black" points="96,-786 96,-807 140,-807 140,-786 96,-786"/>
<text text-anchor="start" x="101" y="-794" font-family="Linux libertine" font-size="10.00">output: </text>
<polygon fill="none" stroke="black" points="140,-786 140,-807 208,-807 208,-786 140,-786"/>
<text text-anchor="start" x="145" y="-794" font-family="Linux libertine" font-size="10.00">(128, 3, 256) </text>
</g>
<!-- 8&#45;&gt;9 -->
<g id="edge10" class="edge">
<title>8&#45;&gt;9</title>
<path fill="none" stroke="black" d="M123.21,-864.03C122.91,-856.26 122.55,-847.19 122.21,-838.63"/>
<polygon fill="black" stroke="black" points="125.67,-838.69 121.78,-828.83 118.68,-838.97 125.67,-838.69"/>
</g>
<!-- 10 -->
<g id="node11" class="node">
<title>10</title>
<polygon fill="#c1ffc1" stroke="none" points="199.5,-750 44.5,-750 44.5,-708 199.5,-708 199.5,-750"/>
<polygon fill="none" stroke="black" points="44.5,-708 44.5,-750 87.5,-750 87.5,-708 44.5,-708"/>
<text text-anchor="start" x="52.5" y="-732" font-family="Linux libertine" font-size="10.00">Linear</text>
<text text-anchor="start" x="49.5" y="-721" font-family="Linux libertine" font-size="10.00">depth:4</text>
<polygon fill="none" stroke="black" points="87.5,-729 87.5,-750 131.5,-750 131.5,-729 87.5,-729"/>
<text text-anchor="start" x="97" y="-737" font-family="Linux libertine" font-size="10.00">input:</text>
<polygon fill="none" stroke="black" points="131.5,-729 131.5,-750 199.5,-750 199.5,-729 131.5,-729"/>
<text text-anchor="start" x="136.5" y="-737" font-family="Linux libertine" font-size="10.00">(128, 3, 256) </text>
<polygon fill="none" stroke="black" points="87.5,-708 87.5,-729 131.5,-729 131.5,-708 87.5,-708"/>
<text text-anchor="start" x="92.5" y="-716" font-family="Linux libertine" font-size="10.00">output: </text>
<polygon fill="none" stroke="black" points="131.5,-708 131.5,-729 199.5,-729 199.5,-708 131.5,-708"/>
<text text-anchor="start" x="141.5" y="-716" font-family="Linux libertine" font-size="10.00">(128, 3, 1) </text>
</g>
<!-- 9&#45;&gt;10 -->
<g id="edge11" class="edge">
<title>9&#45;&gt;10</title>
<path fill="none" stroke="black" d="M121.26,-786.03C121.36,-778.26 121.48,-769.19 121.6,-760.63"/>
<polygon fill="black" stroke="black" points="125.11,-760.88 121.74,-750.83 118.11,-760.79 125.11,-760.88"/>
</g>
<!-- 11 -->
<g id="node12" class="node">
<title>11</title>
<polygon fill="#c1ffc1" stroke="none" points="199.5,-672 50.5,-672 50.5,-630 199.5,-630 199.5,-672"/>
<polygon fill="none" stroke="black" points="50.5,-630 50.5,-672 97.5,-672 97.5,-630 50.5,-630"/>
<text text-anchor="start" x="55.5" y="-654" font-family="Linux libertine" font-size="10.00">Softmax</text>
<text text-anchor="start" x="57.5" y="-643" font-family="Linux libertine" font-size="10.00">depth:4</text>
<polygon fill="none" stroke="black" points="97.5,-651 97.5,-672 141.5,-672 141.5,-651 97.5,-651"/>
<text text-anchor="start" x="107" y="-659" font-family="Linux libertine" font-size="10.00">input:</text>
<polygon fill="none" stroke="black" points="141.5,-651 141.5,-672 199.5,-672 199.5,-651 141.5,-651"/>
<text text-anchor="start" x="146.5" y="-659" font-family="Linux libertine" font-size="10.00">(128, 3, 1) </text>
<polygon fill="none" stroke="black" points="97.5,-630 97.5,-651 141.5,-651 141.5,-630 97.5,-630"/>
<text text-anchor="start" x="102.5" y="-638" font-family="Linux libertine" font-size="10.00">output: </text>
<polygon fill="none" stroke="black" points="141.5,-630 141.5,-651 199.5,-651 199.5,-630 141.5,-630"/>
<text text-anchor="start" x="146.5" y="-638" font-family="Linux libertine" font-size="10.00">(128, 3, 1) </text>
</g>
<!-- 10&#45;&gt;11 -->
<g id="edge12" class="edge">
<title>10&#45;&gt;11</title>
<path fill="none" stroke="black" d="M122.79,-708.03C123.09,-700.26 123.45,-691.19 123.79,-682.63"/>
<polygon fill="black" stroke="black" points="127.32,-682.97 124.22,-672.83 120.33,-682.69 127.32,-682.97"/>
</g>
<!-- 11&#45;&gt;12 -->
<g id="edge13" class="edge">
<title>11&#45;&gt;12</title>
<path fill="none" stroke="black" d="M125.53,-630.03C125.73,-622.26 125.97,-613.19 126.19,-604.63"/>
<polygon fill="black" stroke="black" points="129.71,-604.92 126.48,-594.83 122.72,-604.74 129.71,-604.92"/>
</g>
<!-- 13 -->
<g id="node14" class="node">
<title>13</title>
<polygon fill="aliceblue" stroke="none" points="204.5,-516 49.5,-516 49.5,-474 204.5,-474 204.5,-516"/>
<polygon fill="none" stroke="black" points="49.5,-474 49.5,-516 92.5,-516 92.5,-474 49.5,-474"/>
<text text-anchor="start" x="61.5" y="-498" font-family="Linux libertine" font-size="10.00">sum</text>
<text text-anchor="start" x="54.5" y="-487" font-family="Linux libertine" font-size="10.00">depth:3</text>
<polygon fill="none" stroke="black" points="92.5,-495 92.5,-516 136.5,-516 136.5,-495 92.5,-495"/>
<text text-anchor="start" x="102" y="-503" font-family="Linux libertine" font-size="10.00">input:</text>
<polygon fill="none" stroke="black" points="136.5,-495 136.5,-516 204.5,-516 204.5,-495 136.5,-495"/>
<text text-anchor="start" x="141.5" y="-503" font-family="Linux libertine" font-size="10.00">(128, 3, 256) </text>
<polygon fill="none" stroke="black" points="92.5,-474 92.5,-495 136.5,-495 136.5,-474 92.5,-474"/>
<text text-anchor="start" x="97.5" y="-482" font-family="Linux libertine" font-size="10.00">output: </text>
<polygon fill="none" stroke="black" points="136.5,-474 136.5,-495 204.5,-495 204.5,-474 136.5,-474"/>
<text text-anchor="start" x="147" y="-482" font-family="Linux libertine" font-size="10.00">(128, 256) </text>
</g>
<!-- 12&#45;&gt;13 -->
<g id="edge14" class="edge">
<title>12&#45;&gt;13</title>
<path fill="none" stroke="black" d="M127,-552.03C127,-544.26 127,-535.19 127,-526.63"/>
<polygon fill="black" stroke="black" points="130.5,-526.83 127,-516.83 123.5,-526.83 130.5,-526.83"/>
</g>
<!-- 14 -->
<g id="node15" class="node">
<title>14</title>
<polygon fill="#c1ffc1" stroke="none" points="213,-438 41,-438 41,-396 213,-396 213,-438"/>
<polygon fill="none" stroke="black" points="41,-396 41,-438 112,-438 112,-396 41,-396"/>
<text text-anchor="start" x="46" y="-420" font-family="Linux libertine" font-size="10.00">BatchNorm1d</text>
<text text-anchor="start" x="60" y="-409" font-family="Linux libertine" font-size="10.00">depth:2</text>
<polygon fill="none" stroke="black" points="112,-417 112,-438 156,-438 156,-417 112,-417"/>
<text text-anchor="start" x="121.5" y="-425" font-family="Linux libertine" font-size="10.00">input:</text>
<polygon fill="none" stroke="black" points="156,-417 156,-438 213,-438 213,-417 156,-417"/>
<text text-anchor="start" x="161" y="-425" font-family="Linux libertine" font-size="10.00">(128, 256) </text>
<polygon fill="none" stroke="black" points="112,-396 112,-417 156,-417 156,-396 112,-396"/>
<text text-anchor="start" x="117" y="-404" font-family="Linux libertine" font-size="10.00">output: </text>
<polygon fill="none" stroke="black" points="156,-396 156,-417 213,-417 213,-396 156,-396"/>
<text text-anchor="start" x="161" y="-404" font-family="Linux libertine" font-size="10.00">(128, 256) </text>
</g>
<!-- 13&#45;&gt;14 -->
<g id="edge15" class="edge">
<title>13&#45;&gt;14</title>
<path fill="none" stroke="black" d="M127,-474.03C127,-466.26 127,-457.19 127,-448.63"/>
<polygon fill="black" stroke="black" points="130.5,-448.83 127,-438.83 123.5,-448.83 130.5,-448.83"/>
</g>
<!-- 15 -->
<g id="node16" class="node">
<title>15</title>
<polygon fill="#c1ffc1" stroke="none" points="199,-360 55,-360 55,-318 199,-318 199,-360"/>
<polygon fill="none" stroke="black" points="55,-318 55,-360 98,-360 98,-318 55,-318"/>
<text text-anchor="start" x="63" y="-342" font-family="Linux libertine" font-size="10.00">Linear</text>
<text text-anchor="start" x="60" y="-331" font-family="Linux libertine" font-size="10.00">depth:2</text>
<polygon fill="none" stroke="black" points="98,-339 98,-360 142,-360 142,-339 98,-339"/>
<text text-anchor="start" x="107.5" y="-347" font-family="Linux libertine" font-size="10.00">input:</text>
<polygon fill="none" stroke="black" points="142,-339 142,-360 199,-360 199,-339 142,-339"/>
<text text-anchor="start" x="147" y="-347" font-family="Linux libertine" font-size="10.00">(128, 256) </text>
<polygon fill="none" stroke="black" points="98,-318 98,-339 142,-339 142,-318 98,-318"/>
<text text-anchor="start" x="103" y="-326" font-family="Linux libertine" font-size="10.00">output: </text>
<polygon fill="none" stroke="black" points="142,-318 142,-339 199,-339 199,-318 142,-318"/>
<text text-anchor="start" x="147" y="-326" font-family="Linux libertine" font-size="10.00">(128, 256) </text>
</g>
<!-- 14&#45;&gt;15 -->
<g id="edge16" class="edge">
<title>14&#45;&gt;15</title>
<path fill="none" stroke="black" d="M127,-396.03C127,-388.26 127,-379.19 127,-370.63"/>
<polygon fill="black" stroke="black" points="130.5,-370.83 127,-360.83 123.5,-370.83 130.5,-370.83"/>
</g>
<!-- 16 -->
<g id="node17" class="node">
<title>16</title>
<polygon fill="#c1ffc1" stroke="none" points="208.5,-282 45.5,-282 45.5,-240 208.5,-240 208.5,-282"/>
<polygon fill="none" stroke="black" points="45.5,-240 45.5,-282 107.5,-282 107.5,-240 45.5,-240"/>
<text text-anchor="start" x="50.5" y="-264" font-family="Linux libertine" font-size="10.00">LeakyReLU</text>
<text text-anchor="start" x="60" y="-253" font-family="Linux libertine" font-size="10.00">depth:2</text>
<polygon fill="none" stroke="black" points="107.5,-261 107.5,-282 151.5,-282 151.5,-261 107.5,-261"/>
<text text-anchor="start" x="117" y="-269" font-family="Linux libertine" font-size="10.00">input:</text>
<polygon fill="none" stroke="black" points="151.5,-261 151.5,-282 208.5,-282 208.5,-261 151.5,-261"/>
<text text-anchor="start" x="156.5" y="-269" font-family="Linux libertine" font-size="10.00">(128, 256) </text>
<polygon fill="none" stroke="black" points="107.5,-240 107.5,-261 151.5,-261 151.5,-240 107.5,-240"/>
<text text-anchor="start" x="112.5" y="-248" font-family="Linux libertine" font-size="10.00">output: </text>
<polygon fill="none" stroke="black" points="151.5,-240 151.5,-261 208.5,-261 208.5,-240 151.5,-240"/>
<text text-anchor="start" x="156.5" y="-248" font-family="Linux libertine" font-size="10.00">(128, 256) </text>
</g>
<!-- 15&#45;&gt;16 -->
<g id="edge17" class="edge">
<title>15&#45;&gt;16</title>
<path fill="none" stroke="black" d="M127,-318.03C127,-310.26 127,-301.19 127,-292.63"/>
<polygon fill="black" stroke="black" points="130.5,-292.83 127,-282.83 123.5,-292.83 130.5,-292.83"/>
</g>
<!-- 17 -->
<g id="node18" class="node">
<title>17</title>
<polygon fill="#c1ffc1" stroke="none" points="213,-204 41,-204 41,-162 213,-162 213,-204"/>
<polygon fill="none" stroke="black" points="41,-162 41,-204 112,-204 112,-162 41,-162"/>
<text text-anchor="start" x="46" y="-186" font-family="Linux libertine" font-size="10.00">BatchNorm1d</text>
<text text-anchor="start" x="60" y="-175" font-family="Linux libertine" font-size="10.00">depth:2</text>
<polygon fill="none" stroke="black" points="112,-183 112,-204 156,-204 156,-183 112,-183"/>
<text text-anchor="start" x="121.5" y="-191" font-family="Linux libertine" font-size="10.00">input:</text>
<polygon fill="none" stroke="black" points="156,-183 156,-204 213,-204 213,-183 156,-183"/>
<text text-anchor="start" x="161" y="-191" font-family="Linux libertine" font-size="10.00">(128, 256) </text>
<polygon fill="none" stroke="black" points="112,-162 112,-183 156,-183 156,-162 112,-162"/>
<text text-anchor="start" x="117" y="-170" font-family="Linux libertine" font-size="10.00">output: </text>
<polygon fill="none" stroke="black" points="156,-162 156,-183 213,-183 213,-162 156,-162"/>
<text text-anchor="start" x="161" y="-170" font-family="Linux libertine" font-size="10.00">(128, 256) </text>
</g>
<!-- 16&#45;&gt;17 -->
<g id="edge18" class="edge">
<title>16&#45;&gt;17</title>
<path fill="none" stroke="black" d="M127,-240.03C127,-232.26 127,-223.19 127,-214.63"/>
<polygon fill="black" stroke="black" points="130.5,-214.83 127,-204.83 123.5,-214.83 130.5,-214.83"/>
</g>
<!-- 18 -->
<g id="node19" class="node">
<title>18</title>
<polygon fill="#c1ffc1" stroke="none" points="199,-126 55,-126 55,-84 199,-84 199,-126"/>
<polygon fill="none" stroke="black" points="55,-84 55,-126 98,-126 98,-84 55,-84"/>
<text text-anchor="start" x="63" y="-108" font-family="Linux libertine" font-size="10.00">Linear</text>
<text text-anchor="start" x="60" y="-97" font-family="Linux libertine" font-size="10.00">depth:2</text>
<polygon fill="none" stroke="black" points="98,-105 98,-126 142,-126 142,-105 98,-105"/>
<text text-anchor="start" x="107.5" y="-113" font-family="Linux libertine" font-size="10.00">input:</text>
<polygon fill="none" stroke="black" points="142,-105 142,-126 199,-126 199,-105 142,-105"/>
<text text-anchor="start" x="147" y="-113" font-family="Linux libertine" font-size="10.00">(128, 256) </text>
<polygon fill="none" stroke="black" points="98,-84 98,-105 142,-105 142,-84 98,-84"/>
<text text-anchor="start" x="103" y="-92" font-family="Linux libertine" font-size="10.00">output: </text>
<polygon fill="none" stroke="black" points="142,-84 142,-105 199,-105 199,-84 142,-84"/>
<text text-anchor="start" x="149.5" y="-92" font-family="Linux libertine" font-size="10.00">(128, 10) </text>
</g>
<!-- 17&#45;&gt;18 -->
<g id="edge19" class="edge">
<title>17&#45;&gt;18</title>
<path fill="none" stroke="black" d="M127,-162.03C127,-154.26 127,-145.19 127,-136.63"/>
<polygon fill="black" stroke="black" points="130.5,-136.83 127,-126.83 123.5,-136.83 130.5,-136.83"/>
</g>
<!-- 19 -->
<g id="node20" class="node">
<title>19</title>
<polygon fill="lightyellow" stroke="none" points="185.5,-48 68.5,-48 68.5,-16 185.5,-16 185.5,-48"/>
<polygon fill="none" stroke="black" points="68.5,-16 68.5,-48 136.5,-48 136.5,-16 68.5,-16"/>
<text text-anchor="start" x="73.5" y="-35" font-family="Linux libertine" font-size="10.00">output&#45;tensor</text>
<text text-anchor="start" x="86" y="-24" font-family="Linux libertine" font-size="10.00">depth:0</text>
<polygon fill="none" stroke="black" points="136.5,-16 136.5,-48 185.5,-48 185.5,-16 136.5,-16"/>
<text text-anchor="start" x="141.5" y="-29.5" font-family="Linux libertine" font-size="10.00">(128, 10)</text>
</g>
<!-- 18&#45;&gt;19 -->
<g id="edge20" class="edge">
<title>18&#45;&gt;19</title>
<path fill="none" stroke="black" d="M127,-84.22C127,-76.32 127,-67.12 127,-58.72"/>
<polygon fill="black" stroke="black" points="130.5,-58.94 127,-48.94 123.5,-58.94 130.5,-58.94"/>
</g>
</g>
</svg>
