<?xml version="1.0" encoding="UTF-8" standalone="no"?>
<!DOCTYPE svg PUBLIC "-//W3C//DTD SVG 1.1//EN"
 "http://www.w3.org/Graphics/SVG/1.1/DTD/svg11.dtd">
<!-- Generated by graphviz version 8.0.1 (20230327.1645)
 -->
<!-- Title: model Pages: 1 -->
<svg width="150pt" height="864pt"
 viewBox="0.00 0.00 149.71 864.00" xmlns="http://www.w3.org/2000/svg" xmlns:xlink="http://www.w3.org/1999/xlink">
<g id="graph0" class="graph" transform="scale(0.571429 0.571429) rotate(0) translate(4 1508)">
<title>model</title>
<polygon fill="white" stroke="none" points="-4,4 -4,-1508 258,-1508 258,4 -4,4"/>
<!-- 0 -->
<g id="node1" class="node">
<title>0</title>
<polygon fill="lightyellow" stroke="none" points="180,-1504 30,-1504 30,-1472 180,-1472 180,-1504"/>
<polygon fill="none" stroke="black" points="30,-1472 30,-1504 92,-1504 92,-1472 30,-1472"/>
<text text-anchor="start" x="35" y="-1491" font-family="Linux libertine" font-size="10.00">input&#45;tensor</text>
<text text-anchor="start" x="44.5" y="-1480" font-family="Linux libertine" font-size="10.00">depth:0</text>
<polygon fill="none" stroke="black" points="92,-1472 92,-1504 180,-1504 180,-1472 92,-1472"/>
<text text-anchor="start" x="97" y="-1485.5" font-family="Linux libertine" font-size="10.00">(128, 3, 1, 28, 28)</text>
</g>
<!-- 1 -->
<g id="node2" class="node">
<title>1</title>
<polygon fill="#c1ffc1" stroke="none" points="194,-1436 16,-1436 16,-1394 194,-1394 194,-1436"/>
<polygon fill="none" stroke="black" points="16,-1394 16,-1436 59,-1436 59,-1394 16,-1394"/>
<text text-anchor="start" x="22" y="-1418" font-family="Linux libertine" font-size="10.00">Flatten</text>
<text text-anchor="start" x="21" y="-1407" font-family="Linux libertine" font-size="10.00">depth:4</text>
<polygon fill="none" stroke="black" points="59,-1415 59,-1436 103,-1436 103,-1415 59,-1415"/>
<text text-anchor="start" x="68.5" y="-1423" font-family="Linux libertine" font-size="10.00">input:</text>
<polygon fill="none" stroke="black" points="103,-1415 103,-1436 194,-1436 194,-1415 103,-1415"/>
<text text-anchor="start" x="108" y="-1423" font-family="Linux libertine" font-size="10.00">(128, 3, 1, 28, 28) </text>
<polygon fill="none" stroke="black" points="59,-1394 59,-1415 103,-1415 103,-1394 59,-1394"/>
<text text-anchor="start" x="64" y="-1402" font-family="Linux libertine" font-size="10.00">output: </text>
<polygon fill="none" stroke="black" points="103,-1394 103,-1415 194,-1415 194,-1394 103,-1394"/>
<text text-anchor="start" x="119.5" y="-1402" font-family="Linux libertine" font-size="10.00">(128, 3, 784) </text>
</g>
<!-- 0&#45;&gt;1 -->
<g id="edge1" class="edge">
<title>0&#45;&gt;1</title>
<path fill="none" stroke="black" d="M105,-1472.29C105,-1464.86 105,-1455.56 105,-1446.68"/>
<polygon fill="black" stroke="black" points="108.5,-1446.81 105,-1436.81 101.5,-1446.81 108.5,-1446.81"/>
</g>
<!-- 2 -->
<g id="node3" class="node">
<title>2</title>
<polygon fill="#c1ffc1" stroke="none" points="182.5,-1358 27.5,-1358 27.5,-1316 182.5,-1316 182.5,-1358"/>
<polygon fill="none" stroke="black" points="27.5,-1316 27.5,-1358 70.5,-1358 70.5,-1316 27.5,-1316"/>
<text text-anchor="start" x="35.5" y="-1340" font-family="Linux libertine" font-size="10.00">Linear</text>
<text text-anchor="start" x="32.5" y="-1329" font-family="Linux libertine" font-size="10.00">depth:4</text>
<polygon fill="none" stroke="black" points="70.5,-1337 70.5,-1358 114.5,-1358 114.5,-1337 70.5,-1337"/>
<text text-anchor="start" x="80" y="-1345" font-family="Linux libertine" font-size="10.00">input:</text>
<polygon fill="none" stroke="black" points="114.5,-1337 114.5,-1358 182.5,-1358 182.5,-1337 114.5,-1337"/>
<text text-anchor="start" x="119.5" y="-1345" font-family="Linux libertine" font-size="10.00">(128, 3, 784) </text>
<polygon fill="none" stroke="black" points="70.5,-1316 70.5,-1337 114.5,-1337 114.5,-1316 70.5,-1316"/>
<text text-anchor="start" x="75.5" y="-1324" font-family="Linux libertine" font-size="10.00">output: </text>
<polygon fill="none" stroke="black" points="114.5,-1316 114.5,-1337 182.5,-1337 182.5,-1316 114.5,-1316"/>
<text text-anchor="start" x="119.5" y="-1324" font-family="Linux libertine" font-size="10.00">(128, 3, 256) </text>
</g>
<!-- 1&#45;&gt;2 -->
<g id="edge2" class="edge">
<title>1&#45;&gt;2</title>
<path fill="none" stroke="black" d="M105,-1394.03C105,-1386.26 105,-1377.19 105,-1368.63"/>
<polygon fill="black" stroke="black" points="108.5,-1368.83 105,-1358.83 101.5,-1368.83 108.5,-1368.83"/>
</g>
<!-- 3 -->
<g id="node4" class="node">
<title>3</title>
<polygon fill="#c1ffc1" stroke="none" points="192,-1280 18,-1280 18,-1238 192,-1238 192,-1280"/>
<polygon fill="none" stroke="black" points="18,-1238 18,-1280 80,-1280 80,-1238 18,-1238"/>
<text text-anchor="start" x="23" y="-1262" font-family="Linux libertine" font-size="10.00">LeakyReLU</text>
<text text-anchor="start" x="32.5" y="-1251" font-family="Linux libertine" font-size="10.00">depth:4</text>
<polygon fill="none" stroke="black" points="80,-1259 80,-1280 124,-1280 124,-1259 80,-1259"/>
<text text-anchor="start" x="89.5" y="-1267" font-family="Linux libertine" font-size="10.00">input:</text>
<polygon fill="none" stroke="black" points="124,-1259 124,-1280 192,-1280 192,-1259 124,-1259"/>
<text text-anchor="start" x="129" y="-1267" font-family="Linux libertine" font-size="10.00">(128, 3, 256) </text>
<polygon fill="none" stroke="black" points="80,-1238 80,-1259 124,-1259 124,-1238 80,-1238"/>
<text text-anchor="start" x="85" y="-1246" font-family="Linux libertine" font-size="10.00">output: </text>
<polygon fill="none" stroke="black" points="124,-1238 124,-1259 192,-1259 192,-1238 124,-1238"/>
<text text-anchor="start" x="129" y="-1246" font-family="Linux libertine" font-size="10.00">(128, 3, 256) </text>
</g>
<!-- 2&#45;&gt;3 -->
<g id="edge3" class="edge">
<title>2&#45;&gt;3</title>
<path fill="none" stroke="black" d="M105,-1316.03C105,-1308.26 105,-1299.19 105,-1290.63"/>
<polygon fill="black" stroke="black" points="108.5,-1290.83 105,-1280.83 101.5,-1290.83 108.5,-1290.83"/>
</g>
<!-- 4 -->
<g id="node5" class="node">
<title>4</title>
<polygon fill="#c1ffc1" stroke="none" points="182.5,-1202 27.5,-1202 27.5,-1160 182.5,-1160 182.5,-1202"/>
<polygon fill="none" stroke="black" points="27.5,-1160 27.5,-1202 70.5,-1202 70.5,-1160 27.5,-1160"/>
<text text-anchor="start" x="35.5" y="-1184" font-family="Linux libertine" font-size="10.00">Linear</text>
<text text-anchor="start" x="32.5" y="-1173" font-family="Linux libertine" font-size="10.00">depth:4</text>
<polygon fill="none" stroke="black" points="70.5,-1181 70.5,-1202 114.5,-1202 114.5,-1181 70.5,-1181"/>
<text text-anchor="start" x="80" y="-1189" font-family="Linux libertine" font-size="10.00">input:</text>
<polygon fill="none" stroke="black" points="114.5,-1181 114.5,-1202 182.5,-1202 182.5,-1181 114.5,-1181"/>
<text text-anchor="start" x="119.5" y="-1189" font-family="Linux libertine" font-size="10.00">(128, 3, 256) </text>
<polygon fill="none" stroke="black" points="70.5,-1160 70.5,-1181 114.5,-1181 114.5,-1160 70.5,-1160"/>
<text text-anchor="start" x="75.5" y="-1168" font-family="Linux libertine" font-size="10.00">output: </text>
<polygon fill="none" stroke="black" points="114.5,-1160 114.5,-1181 182.5,-1181 182.5,-1160 114.5,-1160"/>
<text text-anchor="start" x="119.5" y="-1168" font-family="Linux libertine" font-size="10.00">(128, 3, 256) </text>
</g>
<!-- 3&#45;&gt;4 -->
<g id="edge4" class="edge">
<title>3&#45;&gt;4</title>
<path fill="none" stroke="black" d="M105,-1238.03C105,-1230.26 105,-1221.19 105,-1212.63"/>
<polygon fill="black" stroke="black" points="108.5,-1212.83 105,-1202.83 101.5,-1212.83 108.5,-1212.83"/>
</g>
<!-- 5 -->
<g id="node6" class="node">
<title>5</title>
<polygon fill="#c1ffc1" stroke="none" points="192,-1124 18,-1124 18,-1082 192,-1082 192,-1124"/>
<polygon fill="none" stroke="black" points="18,-1082 18,-1124 80,-1124 80,-1082 18,-1082"/>
<text text-anchor="start" x="23" y="-1106" font-family="Linux libertine" font-size="10.00">LeakyReLU</text>
<text text-anchor="start" x="32.5" y="-1095" font-family="Linux libertine" font-size="10.00">depth:4</text>
<polygon fill="none" stroke="black" points="80,-1103 80,-1124 124,-1124 124,-1103 80,-1103"/>
<text text-anchor="start" x="89.5" y="-1111" font-family="Linux libertine" font-size="10.00">input:</text>
<polygon fill="none" stroke="black" points="124,-1103 124,-1124 192,-1124 192,-1103 124,-1103"/>
<text text-anchor="start" x="129" y="-1111" font-family="Linux libertine" font-size="10.00">(128, 3, 256) </text>
<polygon fill="none" stroke="black" points="80,-1082 80,-1103 124,-1103 124,-1082 80,-1082"/>
<text text-anchor="start" x="85" y="-1090" font-family="Linux libertine" font-size="10.00">output: </text>
<polygon fill="none" stroke="black" points="124,-1082 124,-1103 192,-1103 192,-1082 124,-1082"/>
<text text-anchor="start" x="129" y="-1090" font-family="Linux libertine" font-size="10.00">(128, 3, 256) </text>
</g>
<!-- 4&#45;&gt;5 -->
<g id="edge5" class="edge">
<title>4&#45;&gt;5</title>
<path fill="none" stroke="black" d="M105,-1160.03C105,-1152.26 105,-1143.19 105,-1134.63"/>
<polygon fill="black" stroke="black" points="108.5,-1134.83 105,-1124.83 101.5,-1134.83 108.5,-1134.83"/>
</g>
<!-- 6 -->
<g id="node7" class="node">
<title>6</title>
<polygon fill="#c1ffc1" stroke="none" points="182.5,-1046 27.5,-1046 27.5,-1004 182.5,-1004 182.5,-1046"/>
<polygon fill="none" stroke="black" points="27.5,-1004 27.5,-1046 70.5,-1046 70.5,-1004 27.5,-1004"/>
<text text-anchor="start" x="35.5" y="-1028" font-family="Linux libertine" font-size="10.00">Linear</text>
<text text-anchor="start" x="32.5" y="-1017" font-family="Linux libertine" font-size="10.00">depth:4</text>
<polygon fill="none" stroke="black" points="70.5,-1025 70.5,-1046 114.5,-1046 114.5,-1025 70.5,-1025"/>
<text text-anchor="start" x="80" y="-1033" font-family="Linux libertine" font-size="10.00">input:</text>
<polygon fill="none" stroke="black" points="114.5,-1025 114.5,-1046 182.5,-1046 182.5,-1025 114.5,-1025"/>
<text text-anchor="start" x="119.5" y="-1033" font-family="Linux libertine" font-size="10.00">(128, 3, 256) </text>
<polygon fill="none" stroke="black" points="70.5,-1004 70.5,-1025 114.5,-1025 114.5,-1004 70.5,-1004"/>
<text text-anchor="start" x="75.5" y="-1012" font-family="Linux libertine" font-size="10.00">output: </text>
<polygon fill="none" stroke="black" points="114.5,-1004 114.5,-1025 182.5,-1025 182.5,-1004 114.5,-1004"/>
<text text-anchor="start" x="119.5" y="-1012" font-family="Linux libertine" font-size="10.00">(128, 3, 256) </text>
</g>
<!-- 5&#45;&gt;6 -->
<g id="edge6" class="edge">
<title>5&#45;&gt;6</title>
<path fill="none" stroke="black" d="M105,-1082.03C105,-1074.26 105,-1065.19 105,-1056.63"/>
<polygon fill="black" stroke="black" points="108.5,-1056.83 105,-1046.83 101.5,-1056.83 108.5,-1056.83"/>
</g>
<!-- 7 -->
<g id="node8" class="node">
<title>7</title>
<polygon fill="#c1ffc1" stroke="none" points="192,-968 18,-968 18,-926 192,-926 192,-968"/>
<polygon fill="none" stroke="black" points="18,-926 18,-968 80,-968 80,-926 18,-926"/>
<text text-anchor="start" x="23" y="-950" font-family="Linux libertine" font-size="10.00">LeakyReLU</text>
<text text-anchor="start" x="32.5" y="-939" font-family="Linux libertine" font-size="10.00">depth:4</text>
<polygon fill="none" stroke="black" points="80,-947 80,-968 124,-968 124,-947 80,-947"/>
<text text-anchor="start" x="89.5" y="-955" font-family="Linux libertine" font-size="10.00">input:</text>
<polygon fill="none" stroke="black" points="124,-947 124,-968 192,-968 192,-947 124,-947"/>
<text text-anchor="start" x="129" y="-955" font-family="Linux libertine" font-size="10.00">(128, 3, 256) </text>
<polygon fill="none" stroke="black" points="80,-926 80,-947 124,-947 124,-926 80,-926"/>
<text text-anchor="start" x="85" y="-934" font-family="Linux libertine" font-size="10.00">output: </text>
<polygon fill="none" stroke="black" points="124,-926 124,-947 192,-947 192,-926 124,-926"/>
<text text-anchor="start" x="129" y="-934" font-family="Linux libertine" font-size="10.00">(128, 3, 256) </text>
</g>
<!-- 6&#45;&gt;7 -->
<g id="edge7" class="edge">
<title>6&#45;&gt;7</title>
<path fill="none" stroke="black" d="M105,-1004.03C105,-996.26 105,-987.19 105,-978.63"/>
<polygon fill="black" stroke="black" points="108.5,-978.83 105,-968.83 101.5,-978.83 108.5,-978.83"/>
</g>
<!-- 8 -->
<g id="node9" class="node">
<title>8</title>
<polygon fill="#c1ffc1" stroke="none" points="239.5,-890 84.5,-890 84.5,-848 239.5,-848 239.5,-890"/>
<polygon fill="none" stroke="black" points="84.5,-848 84.5,-890 127.5,-890 127.5,-848 84.5,-848"/>
<text text-anchor="start" x="92.5" y="-872" font-family="Linux libertine" font-size="10.00">Linear</text>
<text text-anchor="start" x="89.5" y="-861" font-family="Linux libertine" font-size="10.00">depth:4</text>
<polygon fill="none" stroke="black" points="127.5,-869 127.5,-890 171.5,-890 171.5,-869 127.5,-869"/>
<text text-anchor="start" x="137" y="-877" font-family="Linux libertine" font-size="10.00">input:</text>
<polygon fill="none" stroke="black" points="171.5,-869 171.5,-890 239.5,-890 239.5,-869 171.5,-869"/>
<text text-anchor="start" x="176.5" y="-877" font-family="Linux libertine" font-size="10.00">(128, 3, 256) </text>
<polygon fill="none" stroke="black" points="127.5,-848 127.5,-869 171.5,-869 171.5,-848 127.5,-848"/>
<text text-anchor="start" x="132.5" y="-856" font-family="Linux libertine" font-size="10.00">output: </text>
<polygon fill="none" stroke="black" points="171.5,-848 171.5,-869 239.5,-869 239.5,-848 171.5,-848"/>
<text text-anchor="start" x="176.5" y="-856" font-family="Linux libertine" font-size="10.00">(128, 3, 256) </text>
</g>
<!-- 7&#45;&gt;8 -->
<g id="edge9" class="edge">
<title>7&#45;&gt;8</title>
<path fill="none" stroke="black" d="M119.98,-926.03C126.26,-917.65 133.68,-907.75 140.53,-898.62"/>
<polygon fill="black" stroke="black" points="143.92,-900.93 147.12,-890.83 138.32,-896.73 143.92,-900.93"/>
</g>
<!-- 12 -->
<g id="node13" class="node">
<title>12</title>
<polygon fill="aliceblue" stroke="none" points="206,-578 0,-578 0,-536 206,-536 206,-578"/>
<polygon fill="none" stroke="black" points="0,-536 0,-578 43,-578 43,-536 0,-536"/>
<text text-anchor="start" x="13.5" y="-560" font-family="Linux libertine" font-size="10.00">mul</text>
<text text-anchor="start" x="5" y="-549" font-family="Linux libertine" font-size="10.00">depth:3</text>
<polygon fill="none" stroke="black" points="43,-557 43,-578 87,-578 87,-557 43,-557"/>
<text text-anchor="start" x="52.5" y="-565" font-family="Linux libertine" font-size="10.00">input:</text>
<polygon fill="none" stroke="black" points="87,-557 87,-578 206,-578 206,-557 87,-557"/>
<text text-anchor="start" x="92" y="-565" font-family="Linux libertine" font-size="10.00">(128, 3, 256), (128, 3, 1) </text>
<polygon fill="none" stroke="black" points="43,-536 43,-557 87,-557 87,-536 43,-536"/>
<text text-anchor="start" x="48" y="-544" font-family="Linux libertine" font-size="10.00">output: </text>
<polygon fill="none" stroke="black" points="87,-536 87,-557 206,-557 206,-536 87,-536"/>
<text text-anchor="start" x="117.5" y="-544" font-family="Linux libertine" font-size="10.00">(128, 3, 256) </text>
</g>
<!-- 7&#45;&gt;12 -->
<g id="edge8" class="edge">
<title>7&#45;&gt;12</title>
<path fill="none" stroke="black" d="M92.71,-926.12C86.68,-915.68 79.72,-902.48 75,-890 59.19,-848.15 52,-836.74 52,-792 52,-792 52,-792 52,-712 52,-667.55 56.61,-655.71 72,-614 75.35,-604.93 80,-595.56 84.68,-587.14"/>
<polygon fill="black" stroke="black" points="88.12,-589.18 90.11,-578.77 82.07,-585.67 88.12,-589.18"/>
</g>
<!-- 9 -->
<g id="node10" class="node">
<title>9</title>
<polygon fill="#c1ffc1" stroke="none" points="254,-812 80,-812 80,-770 254,-770 254,-812"/>
<polygon fill="none" stroke="black" points="80,-770 80,-812 142,-812 142,-770 80,-770"/>
<text text-anchor="start" x="85" y="-794" font-family="Linux libertine" font-size="10.00">LeakyReLU</text>
<text text-anchor="start" x="94.5" y="-783" font-family="Linux libertine" font-size="10.00">depth:4</text>
<polygon fill="none" stroke="black" points="142,-791 142,-812 186,-812 186,-791 142,-791"/>
<text text-anchor="start" x="151.5" y="-799" font-family="Linux libertine" font-size="10.00">input:</text>
<polygon fill="none" stroke="black" points="186,-791 186,-812 254,-812 254,-791 186,-791"/>
<text text-anchor="start" x="191" y="-799" font-family="Linux libertine" font-size="10.00">(128, 3, 256) </text>
<polygon fill="none" stroke="black" points="142,-770 142,-791 186,-791 186,-770 142,-770"/>
<text text-anchor="start" x="147" y="-778" font-family="Linux libertine" font-size="10.00">output: </text>
<polygon fill="none" stroke="black" points="186,-770 186,-791 254,-791 254,-770 186,-770"/>
<text text-anchor="start" x="191" y="-778" font-family="Linux libertine" font-size="10.00">(128, 3, 256) </text>
</g>
<!-- 8&#45;&gt;9 -->
<g id="edge10" class="edge">
<title>8&#45;&gt;9</title>
<path fill="none" stroke="black" d="M163.31,-848.03C163.82,-840.26 164.42,-831.19 164.98,-822.63"/>
<polygon fill="black" stroke="black" points="168.53,-823.04 165.7,-812.83 161.55,-822.58 168.53,-823.04"/>
</g>
<!-- 10 -->
<g id="node11" class="node">
<title>10</title>
<polygon fill="#c1ffc1" stroke="none" points="239.5,-734 84.5,-734 84.5,-692 239.5,-692 239.5,-734"/>
<polygon fill="none" stroke="black" points="84.5,-692 84.5,-734 127.5,-734 127.5,-692 84.5,-692"/>
<text text-anchor="start" x="92.5" y="-716" font-family="Linux libertine" font-size="10.00">Linear</text>
<text text-anchor="start" x="89.5" y="-705" font-family="Linux libertine" font-size="10.00">depth:4</text>
<polygon fill="none" stroke="black" points="127.5,-713 127.5,-734 171.5,-734 171.5,-713 127.5,-713"/>
<text text-anchor="start" x="137" y="-721" font-family="Linux libertine" font-size="10.00">input:</text>
<polygon fill="none" stroke="black" points="171.5,-713 171.5,-734 239.5,-734 239.5,-713 171.5,-713"/>
<text text-anchor="start" x="176.5" y="-721" font-family="Linux libertine" font-size="10.00">(128, 3, 256) </text>
<polygon fill="none" stroke="black" points="127.5,-692 127.5,-713 171.5,-713 171.5,-692 127.5,-692"/>
<text text-anchor="start" x="132.5" y="-700" font-family="Linux libertine" font-size="10.00">output: </text>
<polygon fill="none" stroke="black" points="171.5,-692 171.5,-713 239.5,-713 239.5,-692 171.5,-692"/>
<text text-anchor="start" x="181.5" y="-700" font-family="Linux libertine" font-size="10.00">(128, 3, 1) </text>
</g>
<!-- 9&#45;&gt;10 -->
<g id="edge11" class="edge">
<title>9&#45;&gt;10</title>
<path fill="none" stroke="black" d="M165.69,-770.03C165.18,-762.26 164.58,-753.19 164.02,-744.63"/>
<polygon fill="black" stroke="black" points="167.45,-744.58 163.3,-734.83 160.47,-745.04 167.45,-744.58"/>
</g>
<!-- 11 -->
<g id="node12" class="node">
<title>11</title>
<polygon fill="#c1ffc1" stroke="none" points="230.5,-656 81.5,-656 81.5,-614 230.5,-614 230.5,-656"/>
<polygon fill="none" stroke="black" points="81.5,-614 81.5,-656 128.5,-656 128.5,-614 81.5,-614"/>
<text text-anchor="start" x="86.5" y="-638" font-family="Linux libertine" font-size="10.00">Softmax</text>
<text text-anchor="start" x="88.5" y="-627" font-family="Linux libertine" font-size="10.00">depth:4</text>
<polygon fill="none" stroke="black" points="128.5,-635 128.5,-656 172.5,-656 172.5,-635 128.5,-635"/>
<text text-anchor="start" x="138" y="-643" font-family="Linux libertine" font-size="10.00">input:</text>
<polygon fill="none" stroke="black" points="172.5,-635 172.5,-656 230.5,-656 230.5,-635 172.5,-635"/>
<text text-anchor="start" x="177.5" y="-643" font-family="Linux libertine" font-size="10.00">(128, 3, 1) </text>
<polygon fill="none" stroke="black" points="128.5,-614 128.5,-635 172.5,-635 172.5,-614 128.5,-614"/>
<text text-anchor="start" x="133.5" y="-622" font-family="Linux libertine" font-size="10.00">output: </text>
<polygon fill="none" stroke="black" points="172.5,-614 172.5,-635 230.5,-635 230.5,-614 172.5,-614"/>
<text text-anchor="start" x="177.5" y="-622" font-family="Linux libertine" font-size="10.00">(128, 3, 1) </text>
</g>
<!-- 10&#45;&gt;11 -->
<g id="edge12" class="edge">
<title>10&#45;&gt;11</title>
<path fill="none" stroke="black" d="M160.42,-692.03C159.81,-684.26 159.09,-675.19 158.42,-666.63"/>
<polygon fill="black" stroke="black" points="161.84,-666.53 157.57,-656.83 154.86,-667.08 161.84,-666.53"/>
</g>
<!-- 11&#45;&gt;12 -->
<g id="edge13" class="edge">
<title>11&#45;&gt;12</title>
<path fill="none" stroke="black" d="M142.07,-614.03C136.23,-605.65 129.33,-595.75 122.96,-586.62"/>
<polygon fill="black" stroke="black" points="125.42,-585.04 116.83,-578.83 119.68,-589.04 125.42,-585.04"/>
</g>
<!-- 13 -->
<g id="node14" class="node">
<title>13</title>
<polygon fill="aliceblue" stroke="none" points="180.5,-500 25.5,-500 25.5,-458 180.5,-458 180.5,-500"/>
<polygon fill="none" stroke="black" points="25.5,-458 25.5,-500 68.5,-500 68.5,-458 25.5,-458"/>
<text text-anchor="start" x="37.5" y="-482" font-family="Linux libertine" font-size="10.00">sum</text>
<text text-anchor="start" x="30.5" y="-471" font-family="Linux libertine" font-size="10.00">depth:3</text>
<polygon fill="none" stroke="black" points="68.5,-479 68.5,-500 112.5,-500 112.5,-479 68.5,-479"/>
<text text-anchor="start" x="78" y="-487" font-family="Linux libertine" font-size="10.00">input:</text>
<polygon fill="none" stroke="black" points="112.5,-479 112.5,-500 180.5,-500 180.5,-479 112.5,-479"/>
<text text-anchor="start" x="117.5" y="-487" font-family="Linux libertine" font-size="10.00">(128, 3, 256) </text>
<polygon fill="none" stroke="black" points="68.5,-458 68.5,-479 112.5,-479 112.5,-458 68.5,-458"/>
<text text-anchor="start" x="73.5" y="-466" font-family="Linux libertine" font-size="10.00">output: </text>
<polygon fill="none" stroke="black" points="112.5,-458 112.5,-479 180.5,-479 180.5,-458 112.5,-458"/>
<text text-anchor="start" x="123" y="-466" font-family="Linux libertine" font-size="10.00">(128, 256) </text>
</g>
<!-- 12&#45;&gt;13 -->
<g id="edge14" class="edge">
<title>12&#45;&gt;13</title>
<path fill="none" stroke="black" d="M103,-536.03C103,-528.26 103,-519.19 103,-510.63"/>
<polygon fill="black" stroke="black" points="106.5,-510.83 103,-500.83 99.5,-510.83 106.5,-510.83"/>
</g>
<!-- 14 -->
<g id="node15" class="node">
<title>14</title>
<polygon fill="#c1ffc1" stroke="none" points="189,-422 17,-422 17,-380 189,-380 189,-422"/>
<polygon fill="none" stroke="black" points="17,-380 17,-422 88,-422 88,-380 17,-380"/>
<text text-anchor="start" x="22" y="-404" font-family="Linux libertine" font-size="10.00">BatchNorm1d</text>
<text text-anchor="start" x="36" y="-393" font-family="Linux libertine" font-size="10.00">depth:2</text>
<polygon fill="none" stroke="black" points="88,-401 88,-422 132,-422 132,-401 88,-401"/>
<text text-anchor="start" x="97.5" y="-409" font-family="Linux libertine" font-size="10.00">input:</text>
<polygon fill="none" stroke="black" points="132,-401 132,-422 189,-422 189,-401 132,-401"/>
<text text-anchor="start" x="137" y="-409" font-family="Linux libertine" font-size="10.00">(128, 256) </text>
<polygon fill="none" stroke="black" points="88,-380 88,-401 132,-401 132,-380 88,-380"/>
<text text-anchor="start" x="93" y="-388" font-family="Linux libertine" font-size="10.00">output: </text>
<polygon fill="none" stroke="black" points="132,-380 132,-401 189,-401 189,-380 132,-380"/>
<text text-anchor="start" x="137" y="-388" font-family="Linux libertine" font-size="10.00">(128, 256) </text>
</g>
<!-- 13&#45;&gt;14 -->
<g id="edge15" class="edge">
<title>13&#45;&gt;14</title>
<path fill="none" stroke="black" d="M103,-458.03C103,-450.26 103,-441.19 103,-432.63"/>
<polygon fill="black" stroke="black" points="106.5,-432.83 103,-422.83 99.5,-432.83 106.5,-432.83"/>
</g>
<!-- 15 -->
<g id="node16" class="node">
<title>15</title>
<polygon fill="#c1ffc1" stroke="none" points="175,-344 31,-344 31,-302 175,-302 175,-344"/>
<polygon fill="none" stroke="black" points="31,-302 31,-344 74,-344 74,-302 31,-302"/>
<text text-anchor="start" x="39" y="-326" font-family="Linux libertine" font-size="10.00">Linear</text>
<text text-anchor="start" x="36" y="-315" font-family="Linux libertine" font-size="10.00">depth:2</text>
<polygon fill="none" stroke="black" points="74,-323 74,-344 118,-344 118,-323 74,-323"/>
<text text-anchor="start" x="83.5" y="-331" font-family="Linux libertine" font-size="10.00">input:</text>
<polygon fill="none" stroke="black" points="118,-323 118,-344 175,-344 175,-323 118,-323"/>
<text text-anchor="start" x="123" y="-331" font-family="Linux libertine" font-size="10.00">(128, 256) </text>
<polygon fill="none" stroke="black" points="74,-302 74,-323 118,-323 118,-302 74,-302"/>
<text text-anchor="start" x="79" y="-310" font-family="Linux libertine" font-size="10.00">output: </text>
<polygon fill="none" stroke="black" points="118,-302 118,-323 175,-323 175,-302 118,-302"/>
<text text-anchor="start" x="123" y="-310" font-family="Linux libertine" font-size="10.00">(128, 256) </text>
</g>
<!-- 14&#45;&gt;15 -->
<g id="edge16" class="edge">
<title>14&#45;&gt;15</title>
<path fill="none" stroke="black" d="M103,-380.03C103,-372.26 103,-363.19 103,-354.63"/>
<polygon fill="black" stroke="black" points="106.5,-354.83 103,-344.83 99.5,-354.83 106.5,-354.83"/>
</g>
<!-- 16 -->
<g id="node17" class="node">
<title>16</title>
<polygon fill="#c1ffc1" stroke="none" points="184.5,-266 21.5,-266 21.5,-224 184.5,-224 184.5,-266"/>
<polygon fill="none" stroke="black" points="21.5,-224 21.5,-266 83.5,-266 83.5,-224 21.5,-224"/>
<text text-anchor="start" x="26.5" y="-248" font-family="Linux libertine" font-size="10.00">LeakyReLU</text>
<text text-anchor="start" x="36" y="-237" font-family="Linux libertine" font-size="10.00">depth:2</text>
<polygon fill="none" stroke="black" points="83.5,-245 83.5,-266 127.5,-266 127.5,-245 83.5,-245"/>
<text text-anchor="start" x="93" y="-253" font-family="Linux libertine" font-size="10.00">input:</text>
<polygon fill="none" stroke="black" points="127.5,-245 127.5,-266 184.5,-266 184.5,-245 127.5,-245"/>
<text text-anchor="start" x="132.5" y="-253" font-family="Linux libertine" font-size="10.00">(128, 256) </text>
<polygon fill="none" stroke="black" points="83.5,-224 83.5,-245 127.5,-245 127.5,-224 83.5,-224"/>
<text text-anchor="start" x="88.5" y="-232" font-family="Linux libertine" font-size="10.00">output: </text>
<polygon fill="none" stroke="black" points="127.5,-224 127.5,-245 184.5,-245 184.5,-224 127.5,-224"/>
<text text-anchor="start" x="132.5" y="-232" font-family="Linux libertine" font-size="10.00">(128, 256) </text>
</g>
<!-- 15&#45;&gt;16 -->
<g id="edge17" class="edge">
<title>15&#45;&gt;16</title>
<path fill="none" stroke="black" d="M103,-302.03C103,-294.26 103,-285.19 103,-276.63"/>
<polygon fill="black" stroke="black" points="106.5,-276.83 103,-266.83 99.5,-276.83 106.5,-276.83"/>
</g>
<!-- 17 -->
<g id="node18" class="node">
<title>17</title>
<polygon fill="#c1ffc1" stroke="none" points="189,-188 17,-188 17,-146 189,-146 189,-188"/>
<polygon fill="none" stroke="black" points="17,-146 17,-188 88,-188 88,-146 17,-146"/>
<text text-anchor="start" x="22" y="-170" font-family="Linux libertine" font-size="10.00">BatchNorm1d</text>
<text text-anchor="start" x="36" y="-159" font-family="Linux libertine" font-size="10.00">depth:2</text>
<polygon fill="none" stroke="black" points="88,-167 88,-188 132,-188 132,-167 88,-167"/>
<text text-anchor="start" x="97.5" y="-175" font-family="Linux libertine" font-size="10.00">input:</text>
<polygon fill="none" stroke="black" points="132,-167 132,-188 189,-188 189,-167 132,-167"/>
<text text-anchor="start" x="137" y="-175" font-family="Linux libertine" font-size="10.00">(128, 256) </text>
<polygon fill="none" stroke="black" points="88,-146 88,-167 132,-167 132,-146 88,-146"/>
<text text-anchor="start" x="93" y="-154" font-family="Linux libertine" font-size="10.00">output: </text>
<polygon fill="none" stroke="black" points="132,-146 132,-167 189,-167 189,-146 132,-146"/>
<text text-anchor="start" x="137" y="-154" font-family="Linux libertine" font-size="10.00">(128, 256) </text>
</g>
<!-- 16&#45;&gt;17 -->
<g id="edge18" class="edge">
<title>16&#45;&gt;17</title>
<path fill="none" stroke="black" d="M103,-224.03C103,-216.26 103,-207.19 103,-198.63"/>
<polygon fill="black" stroke="black" points="106.5,-198.83 103,-188.83 99.5,-198.83 106.5,-198.83"/>
</g>
<!-- 18 -->
<g id="node19" class="node">
<title>18</title>
<polygon fill="#c1ffc1" stroke="none" points="175,-110 31,-110 31,-68 175,-68 175,-110"/>
<polygon fill="none" stroke="black" points="31,-68 31,-110 74,-110 74,-68 31,-68"/>
<text text-anchor="start" x="39" y="-92" font-family="Linux libertine" font-size="10.00">Linear</text>
<text text-anchor="start" x="36" y="-81" font-family="Linux libertine" font-size="10.00">depth:2</text>
<polygon fill="none" stroke="black" points="74,-89 74,-110 118,-110 118,-89 74,-89"/>
<text text-anchor="start" x="83.5" y="-97" font-family="Linux libertine" font-size="10.00">input:</text>
<polygon fill="none" stroke="black" points="118,-89 118,-110 175,-110 175,-89 118,-89"/>
<text text-anchor="start" x="123" y="-97" font-family="Linux libertine" font-size="10.00">(128, 256) </text>
<polygon fill="none" stroke="black" points="74,-68 74,-89 118,-89 118,-68 74,-68"/>
<text text-anchor="start" x="79" y="-76" font-family="Linux libertine" font-size="10.00">output: </text>
<polygon fill="none" stroke="black" points="118,-68 118,-89 175,-89 175,-68 118,-68"/>
<text text-anchor="start" x="125.5" y="-76" font-family="Linux libertine" font-size="10.00">(128, 10) </text>
</g>
<!-- 17&#45;&gt;18 -->
<g id="edge19" class="edge">
<title>17&#45;&gt;18</title>
<path fill="none" stroke="black" d="M103,-146.03C103,-138.26 103,-129.19 103,-120.63"/>
<polygon fill="black" stroke="black" points="106.5,-120.83 103,-110.83 99.5,-120.83 106.5,-120.83"/>
</g>
<!-- 19 -->
<g id="node20" class="node">
<title>19</title>
<polygon fill="lightyellow" stroke="none" points="161.5,-32 44.5,-32 44.5,0 161.5,0 161.5,-32"/>
<polygon fill="none" stroke="black" points="44.5,0 44.5,-32 112.5,-32 112.5,0 44.5,0"/>
<text text-anchor="start" x="49.5" y="-19" font-family="Linux libertine" font-size="10.00">output&#45;tensor</text>
<text text-anchor="start" x="62" y="-8" font-family="Linux libertine" font-size="10.00">depth:0</text>
<polygon fill="none" stroke="black" points="112.5,0 112.5,-32 161.5,-32 161.5,0 112.5,0"/>
<text text-anchor="start" x="117.5" y="-13.5" font-family="Linux libertine" font-size="10.00">(128, 10)</text>
</g>
<!-- 18&#45;&gt;19 -->
<g id="edge20" class="edge">
<title>18&#45;&gt;19</title>
<path fill="none" stroke="black" d="M103,-68.22C103,-60.32 103,-51.12 103,-42.72"/>
<polygon fill="black" stroke="black" points="106.5,-42.94 103,-32.94 99.5,-42.94 106.5,-42.94"/>
</g>
</g>
</svg>
